<?xml version="1.0" standalone="no"?>
<!DOCTYPE svg PUBLIC "-//W3C//DTD SVG 1.1//EN" "http://www.w3.org/Graphics/SVG/1.1/DTD/svg11.dtd" >
<svg>
<metadata>
Created by FontForge 20120731 at Thu Aug 23 01:03:56 2018
 By www
Copyright 1990-1999 as an unpublished work by Bitstream Inc.  All rights reserved.  Confidential.
</metadata>
<defs>
<font id="WindsorBT-LightCondensed" horiz-adv-x="500" >
  <font-face 
    font-family="Windsor"
    font-weight="300"
    font-stretch="condensed"
    units-per-em="1000"
    panose-1="0 0 0 0 0 0 0 0 0 0"
    ascent="800"
    descent="-200"
    x-height="417"
    cap-height="713"
    bbox="-167 -236 1000 973"
    underline-thickness="43"
    underline-position="-64"
    stemh="20"
    stemv="69"
    unicode-range="U+0020-FB02"
  />
<missing-glyph horiz-adv-x="231" 
 />
    <glyph glyph-name=".notdef" horiz-adv-x="231" 
 />
    <glyph glyph-name="space" unicode=" " horiz-adv-x="231" 
 />
    <glyph glyph-name="exclam" unicode="!" horiz-adv-x="252" 
d="M126 144c-13 0 -12 23 -16 78c-19 270 -34 415 -34 435c0 50 15 73 50 73s50 -23 50 -73c0 -20 -16 -165 -35 -436c-4 -54 -2 -77 -15 -77zM125 69c22 0 37 -16 37 -40c0 -25 -15 -40 -37 -40s-36 15 -36 40c0 24 14 40 36 40z" />
    <glyph glyph-name="quotedbl" unicode="&#x22;" horiz-adv-x="331" 
d="M93 422h-16l-31 223c-1 7 -2 14 -2 20c0 32 15 49 41 49s42 -17 42 -49c0 -5 -1 -12 -2 -20zM253 422h-15l-32 223c-1 7 -2 13 -2 19c0 33 16 50 42 50s41 -17 41 -49c0 -5 0 -12 -1 -20z" />
    <glyph glyph-name="numbersign" unicode="#" horiz-adv-x="769" 
d="M380 711h65l-82 -231h140l82 231h64l-81 -231h150l-20 -56h-151l-49 -140h162l-21 -56h-161l-81 -229h-65l81 229h-140l-81 -229h-64l81 229h-158l21 56h157l49 140h-170l21 56h170zM342 424l-49 -140h141l50 140h-142z" />
    <glyph glyph-name="dollar" unicode="$" horiz-adv-x="463" 
d="M212 -97v87c-120 2 -191 60 -191 134c0 51 35 86 75 86c37 0 58 -19 58 -49c0 -13 -3 -24 -10 -34c-7 10 -15 15 -26 15c-19 0 -35 -16 -35 -42c0 -53 47 -90 129 -90v327c-120 34 -178 97 -178 200c0 104 65 172 178 182v80h34v-80c101 -9 161 -63 161 -125
c0 -45 -26 -73 -61 -73c-27 0 -47 18 -47 42c0 8 3 17 7 28c5 -9 10 -13 18 -13c14 0 24 12 24 34c0 46 -37 79 -102 84v-291c125 -32 187 -102 187 -212c0 -115 -67 -189 -187 -202v-88h-34zM212 416v280c-72 -7 -114 -55 -114 -135c0 -79 35 -124 114 -145zM246 327v-315
c78 13 116 64 116 155c0 82 -39 136 -116 160z" />
    <glyph glyph-name="percent" unicode="%" horiz-adv-x="641" 
d="M166 720c74 0 122 -66 122 -183s-48 -182 -122 -182s-123 65 -123 182s49 183 123 183zM166 704c-46 0 -60 -55 -60 -167s13 -166 60 -166c46 0 59 54 59 166s-13 167 -59 167zM475 356c74 0 123 -66 123 -183s-49 -182 -123 -182s-122 65 -122 182s48 183 122 183z
M475 340c-46 0 -59 -55 -59 -167s12 -166 59 -166c46 0 59 54 59 166s-13 167 -59 167zM451 720h51l-315 -729h-50z" />
    <glyph glyph-name="ampersand" unicode="&#x26;" horiz-adv-x="981" 
d="M613 61c-89 -52 -174 -78 -262 -78c-133 0 -208 60 -208 157c0 108 95 202 283 267c-1 9 -1 18 -1 27c0 114 65 188 128 188c42 0 73 -34 73 -84c0 -58 -42 -99 -126 -126c28 -95 86 -194 167 -282c139 100 212 228 212 332c0 141 -132 238 -368 238
c-158 0 -281 -36 -359 -97c-46 -36 -71 -79 -71 -116c0 -30 16 -52 40 -58c14 -3 31 0 31 -12c0 -7 -5 -11 -15 -16l-57 -30c-6 -3 -12 -5 -16 -5c-23 0 -57 43 -57 95c0 59 39 119 114 167c97 62 235 95 411 95c271 0 421 -95 421 -237c0 -114 -89 -237 -268 -374
c47 -49 88 -74 120 -74c42 0 52 36 62 36c5 0 8 -4 8 -10c0 -40 -43 -83 -100 -83c-49 0 -105 26 -162 80zM595 81c-86 98 -141 200 -164 303c-126 -43 -195 -126 -195 -218c0 -85 64 -143 170 -143c65 0 130 20 189 58zM493 432c63 20 100 69 100 120c0 31 -16 50 -39 50
c-34 0 -69 -41 -69 -109c0 -15 1 -36 8 -61z" />
    <glyph glyph-name="quoteright" unicode="&#x2019;" horiz-adv-x="231" 
d="M76 687c0 25 16 42 40 42c22 0 41 -22 41 -58c0 -59 -52 -104 -72 -104c-6 0 -10 4 -10 10c0 12 44 27 44 59c0 10 -6 9 -16 13c-18 7 -27 18 -27 38z" />
    <glyph glyph-name="parenleft" unicode="(" horiz-adv-x="243" 
d="M240 722c0 -5 -25 -28 -56 -87c-59 -113 -75 -211 -75 -329s16 -216 75 -329c31 -59 56 -82 56 -87c0 -4 -4 -7 -9 -7s-29 19 -62 60c-91 116 -135 230 -135 363s44 247 135 363c33 41 57 60 62 60s9 -3 9 -7z" />
    <glyph glyph-name="parenright" unicode=")" horiz-adv-x="243" 
d="M134 306c0 119 -17 217 -75 329c-31 59 -56 82 -56 87c0 4 4 7 9 7s29 -19 62 -60c91 -115 135 -230 135 -363s-44 -247 -135 -363c-33 -41 -57 -60 -62 -60s-9 3 -9 7c0 5 25 28 56 87c58 112 75 211 75 329z" />
    <glyph glyph-name="asterisk" unicode="*" 
d="M244 539v11c0 66 -34 107 -34 141c0 28 15 45 40 45c24 0 39 -15 39 -42c0 -35 -35 -79 -35 -157c56 27 76 65 94 86c16 19 33 28 50 28c22 0 39 -19 39 -39c0 -23 -21 -40 -60 -47c-15 -3 -55 -3 -117 -37c50 -35 94 -32 122 -37c34 -7 55 -27 55 -47
c0 -22 -17 -41 -39 -41c-17 0 -34 11 -52 33c-8 10 -28 44 -90 83c0 -5 -1 -11 -1 -16c0 -65 34 -107 34 -137c0 -31 -13 -47 -39 -47c-24 0 -39 16 -39 42c0 32 34 77 35 157c-54 -25 -74 -63 -94 -86c-16 -19 -35 -29 -51 -29c-21 0 -38 21 -38 41c0 22 20 39 59 46
c12 2 53 1 118 36c-55 39 -107 32 -137 43c-25 9 -40 25 -40 42c0 20 17 41 38 41c18 0 35 -12 53 -33c14 -16 32 -51 90 -80z" />
    <glyph glyph-name="plus" unicode="+" horiz-adv-x="833" 
d="M388 596h58v-269h263v-57h-263v-270h-58v270h-264v57h264v269z" />
    <glyph glyph-name="comma" unicode="," horiz-adv-x="231" 
d="M78 30c0 25 16 42 40 42c22 0 41 -22 41 -58c0 -58 -52 -104 -73 -104c-6 0 -9 4 -9 10c0 12 43 27 43 59c0 10 -6 9 -16 13c-18 7 -26 19 -26 38z" />
    <glyph glyph-name="hyphen" unicode="-" horiz-adv-x="227" 
d="M181 184h-93c-30 0 -39 -14 -47 -14c-5 0 -8 4 -8 10c0 3 1 6 3 11l17 50h88c40 0 45 17 52 17c4 0 8 -5 8 -10c0 -2 -1 -6 -3 -11z" />
    <glyph glyph-name="period" unicode="." horiz-adv-x="231" 
d="M116 69c22 0 36 -16 36 -40c0 -25 -14 -40 -36 -40s-37 15 -37 40c0 24 15 40 37 40z" />
    <glyph glyph-name="slash" unicode="/" horiz-adv-x="278" 
d="M-50 -93l295 806h57l-295 -806h-57z" />
    <glyph glyph-name="zero" unicode="0" horiz-adv-x="463" 
d="M35 336c0 239 91 384 196 384c106 0 197 -146 197 -390c0 -212 -86 -339 -197 -339c-112 0 -196 127 -196 345zM120 323c0 -209 18 -312 111 -312s112 103 112 312c0 253 -19 378 -112 378c-94 0 -111 -125 -111 -378z" />
    <glyph glyph-name="one" unicode="1" horiz-adv-x="463" 
d="M176 0c-21 0 -31 2 -31 13s21 11 39 22c8 5 10 19 10 45v484c0 33 -2 41 -32 42l-37 1c-8 0 -11 2 -11 8c0 9 15 14 42 29c65 37 93 67 103 67c7 0 9 -6 9 -17v-614c0 -25 1 -40 10 -45c17 -11 39 -11 39 -22s-10 -13 -31 -13h-110z" />
    <glyph glyph-name="two" unicode="2" horiz-adv-x="463" 
d="M24 0c7 91 58 163 143 246c48 47 101 88 137 149c24 41 36 86 36 136c0 103 -51 164 -135 164c-71 0 -123 -47 -123 -118c0 -44 26 -72 62 -72c21 0 36 9 51 29c11 -11 13 -23 13 -39c0 -36 -30 -64 -74 -64c-59 0 -104 49 -104 120c0 97 76 169 188 169
c121 0 208 -89 208 -208c0 -41 -10 -80 -32 -120c-27 -51 -79 -87 -142 -130c-117 -80 -172 -142 -172 -176c0 -10 6 -14 19 -14h198c42 0 70 7 86 25c18 20 22 40 33 40c7 0 9 -4 9 -12c0 -1 0 -7 -3 -15l-39 -110h-359z" />
    <glyph glyph-name="three" unicode="3" horiz-adv-x="463" 
d="M200 435c15 3 29 5 42 5c118 0 189 -79 189 -215c0 -146 -88 -235 -230 -235c-111 0 -178 59 -178 150c0 66 38 111 92 111c38 0 64 -22 64 -53c0 -15 -6 -29 -18 -43c-7 16 -24 25 -45 25c-28 0 -49 -23 -49 -59c0 -62 48 -109 123 -109c98 0 155 66 155 185
c0 142 -44 215 -124 215c-37 0 -57 -17 -64 -17c-6 0 -9 3 -9 9s5 12 13 21l191 214h-161c-106 0 -124 -41 -135 -41c-5 0 -9 3 -9 9c0 4 5 11 13 22l61 81c8 11 16 18 23 18c11 0 17 -9 25 -14c4 -3 11 -3 19 -3h215c21 0 30 -1 30 -12c0 -7 -6 -14 -17 -26z" />
    <glyph glyph-name="four" unicode="4" horiz-adv-x="463" 
d="M44 262h260v400zM303 711h75v-449h72v-51h-72v-131c0 -24 0 -38 11 -45c17 -11 38 -11 38 -22s-9 -13 -30 -13h-111c-21 0 -30 2 -30 13s20 11 38 22c8 5 10 19 10 45v131h-282v58z" />
    <glyph glyph-name="five" unicode="5" horiz-adv-x="463" 
d="M173 711h193c38 0 52 16 56 16c3 0 5 -3 5 -6s-2 -9 -5 -17l-22 -67h-225l-63 -189c30 24 63 36 102 36c122 0 212 -92 212 -234c0 -158 -94 -259 -239 -259c-104 0 -166 56 -166 145c0 73 42 122 98 122c40 0 69 -26 69 -58c0 -18 -6 -31 -18 -40c-11 20 -27 30 -48 30
c-35 0 -58 -26 -58 -71c0 -66 47 -107 122 -107c99 0 155 75 155 219s-57 223 -146 223c-30 0 -56 -14 -86 -39c-14 -12 -20 -23 -27 -23c-6 0 -9 2 -9 8c0 4 2 16 8 34z" />
    <glyph glyph-name="six" unicode="6" horiz-adv-x="463" 
d="M128 369c26 44 70 68 126 68c107 0 187 -87 187 -211c0 -145 -78 -235 -194 -235c-130 0 -205 106 -205 306c0 273 93 423 238 423c83 0 141 -50 141 -117c0 -50 -33 -86 -76 -86c-35 0 -59 23 -59 54c0 10 3 18 10 27c9 -8 17 -11 27 -11c23 0 38 15 38 40
c0 39 -34 71 -81 71c-98 0 -149 -111 -152 -329zM240 415c-77 0 -114 -70 -114 -210c0 -128 38 -193 114 -193c78 0 115 67 115 202c0 134 -39 201 -115 201z" />
    <glyph glyph-name="seven" unicode="7" horiz-adv-x="463" 
d="M133 0c41 188 131 401 271 639h-239c-26 0 -50 -1 -71 -13c-29 -16 -43 -39 -50 -39c-4 0 -7 3 -7 7s4 14 13 28l57 88c7 11 11 18 20 18s14 -17 59 -17h256c16 0 21 -1 21 -11c0 -5 -5 -13 -10 -24l-44 -98c-100 -217 -166 -403 -176 -578h-100z" />
    <glyph glyph-name="eight" unicode="8" horiz-adv-x="463" 
d="M160 379c-71 40 -104 93 -104 167c0 103 71 174 172 174c104 0 174 -68 174 -160c0 -66 -37 -120 -107 -156c91 -42 136 -110 136 -207c0 -126 -79 -206 -202 -206c-122 0 -199 78 -199 196c0 88 42 151 130 192zM279 410c39 40 57 88 57 147c0 89 -43 143 -109 143
c-59 0 -105 -48 -105 -119c0 -80 50 -130 157 -171zM179 372c-49 -43 -77 -112 -77 -196c0 -103 50 -165 127 -165c73 0 124 59 124 152c0 102 -53 162 -174 209z" />
    <glyph glyph-name="nine" unicode="9" horiz-adv-x="463" 
d="M344 342c-27 -45 -70 -68 -127 -68c-107 0 -186 86 -186 211c0 144 80 236 194 236c130 0 204 -106 204 -306c0 -281 -81 -424 -238 -424c-83 0 -140 50 -140 118c0 50 33 85 76 85c35 0 59 -23 59 -54c0 -10 -3 -18 -10 -27c-9 8 -18 11 -28 11c-23 0 -37 -14 -37 -40
c0 -42 32 -70 85 -70c108 0 148 105 148 328zM231 296c75 0 114 69 114 202c0 134 -38 201 -114 201c-75 0 -115 -65 -115 -195c0 -139 37 -208 115 -208z" />
    <glyph glyph-name="colon" unicode=":" horiz-adv-x="231" 
d="M116 69c22 0 36 -16 36 -40c0 -25 -14 -40 -36 -40s-37 15 -37 40c0 24 15 40 37 40zM116 404c22 0 36 -16 36 -40c0 -25 -14 -40 -36 -40s-37 15 -37 40c0 24 15 40 37 40z" />
    <glyph glyph-name="semicolon" unicode=";" horiz-adv-x="231" 
d="M116 404c22 0 36 -16 36 -40c0 -25 -14 -40 -36 -40s-37 15 -37 40c0 24 15 40 37 40zM78 30c0 25 16 42 40 42c22 0 41 -22 41 -58c0 -58 -52 -104 -73 -104c-6 0 -9 4 -9 10c0 12 43 27 43 59c0 10 -6 9 -16 13c-18 7 -26 19 -26 38z" />
    <glyph glyph-name="less" unicode="&#x3c;" horiz-adv-x="833" 
d="M704 559v-62l-488 -199l488 -198v-63l-575 236v50z" />
    <glyph glyph-name="equal" unicode="=" horiz-adv-x="833" 
d="M124 420h585v-57h-585v57zM124 233h585v-57h-585v57z" />
    <glyph glyph-name="greater" unicode="&#x3e;" horiz-adv-x="833" 
d="M129 559l575 -236v-50l-575 -236v63l488 198l-488 199v62z" />
    <glyph glyph-name="question" unicode="?" horiz-adv-x="424" 
d="M162 569c5 -19 7 -33 7 -41c0 -29 -23 -51 -60 -51c-46 0 -79 39 -79 99c0 85 65 152 156 152c99 0 179 -80 179 -194c0 -49 -14 -90 -41 -123c-33 -41 -69 -70 -97 -98c-40 -39 -66 -68 -66 -141v-16c0 -11 -4 -16 -12 -16c-10 0 -13 12 -13 38c0 55 10 102 36 145
c22 37 50 63 68 90c27 40 38 78 38 127c0 105 -42 165 -110 165c-51 0 -89 -39 -89 -88c0 -36 23 -60 49 -60c11 0 22 4 34 12zM148 69c22 0 37 -16 37 -40c0 -25 -15 -40 -37 -40s-36 15 -36 40c0 24 14 40 36 40z" />
    <glyph glyph-name="at" unicode="@" horiz-adv-x="986" 
d="M536 471c-37 0 -64 -21 -93 -64c-50 -75 -77 -164 -77 -224c0 -62 30 -98 73 -98s82 29 118 87c40 65 61 141 61 195c0 62 -35 104 -82 104zM581 164c-40 -69 -90 -103 -151 -103c-81 0 -135 65 -135 164c0 69 32 143 91 200c44 43 99 66 146 66c57 0 94 -32 108 -95
l26 88h70l-83 -298c-4 -14 -9 -30 -9 -53c0 -31 18 -50 46 -50c19 0 51 10 80 32c78 58 123 152 123 267c0 91 -32 163 -99 222c-58 51 -143 81 -236 81c-121 0 -222 -38 -301 -114c-85 -82 -129 -192 -129 -324c0 -113 35 -194 116 -263c74 -63 170 -96 284 -96
c105 0 207 34 299 101l15 -18c-96 -71 -204 -108 -320 -108c-123 0 -224 31 -301 90c-98 74 -150 181 -150 309c0 132 56 250 164 339c86 72 191 108 310 108c226 0 371 -132 371 -335c0 -103 -40 -198 -108 -260c-39 -36 -84 -53 -126 -53c-63 0 -97 34 -101 103z" />
    <glyph glyph-name="A" unicode="A" horiz-adv-x="549" 
d="M8 0c-16 0 -23 2 -23 10c0 9 8 11 21 16c42 17 48 33 60 72l190 615h50l196 -641c16 -52 61 -48 61 -62c0 -8 -8 -10 -27 -10h-145c-15 0 -21 1 -21 9c0 17 47 12 47 42c0 6 -2 17 -6 32l-28 95c-8 25 -17 35 -41 35h-187c-22 0 -28 -6 -35 -29l-22 -76
c-4 -14 -6 -28 -6 -42c0 -16 9 -31 22 -37c18 -8 34 -9 34 -20c0 -7 -9 -9 -27 -9h-113zM144 264c-2 -5 -2 -10 -2 -14c0 -10 6 -14 18 -14h176c13 0 23 8 23 17c0 5 -1 11 -3 18l-102 335h-9z" />
    <glyph glyph-name="B" unicode="B" horiz-adv-x="551" 
d="M68 0c-22 0 -33 2 -33 13s21 11 39 22c8 5 10 19 10 45v554c0 23 -3 36 -6 40c-10 14 -36 15 -36 18c0 1 -7 4 -7 10c0 14 29 14 94 14c84 0 146 -2 186 -15c89 -29 133 -82 133 -156c0 -68 -49 -113 -143 -127c135 -22 214 -108 214 -222c0 -71 -38 -134 -107 -167
c-50 -24 -122 -29 -221 -29h-123zM169 87c0 -53 14 -63 68 -63c123 0 186 60 186 176c0 127 -84 209 -198 209c-42 0 -56 -4 -56 -38v-284zM169 473c0 -36 14 -41 57 -41c95 0 141 35 141 111c0 89 -61 150 -156 150c-31 0 -42 -7 -42 -37v-183z" />
    <glyph glyph-name="C" unicode="C" horiz-adv-x="515" 
d="M430 711l43 -129c2 -6 3 -10 3 -12c0 -7 -4 -11 -8 -11c-12 0 -18 15 -32 37c-46 71 -83 110 -135 110c-96 0 -169 -133 -169 -372c0 -202 67 -307 189 -307c70 0 118 35 142 102c13 38 7 63 24 63c8 0 11 -6 11 -19c0 -108 -81 -189 -196 -189c-70 0 -130 26 -175 74
c-62 67 -95 159 -95 271c0 124 42 239 119 326c43 49 96 75 147 75c45 0 77 -18 90 -18c14 0 18 19 28 19c7 0 10 -8 14 -20z" />
    <glyph glyph-name="D" unicode="D" horiz-adv-x="574" 
d="M68 0c-22 0 -33 2 -33 13s21 11 39 22c8 5 10 19 10 45v554c0 23 -3 36 -6 40c-10 14 -36 15 -36 18c0 1 -7 4 -7 10c0 14 29 14 94 14c83 0 153 -7 217 -39c121 -61 196 -186 196 -331c0 -140 -67 -258 -170 -312c-65 -34 -141 -34 -236 -34h-68zM170 98
c0 -59 3 -74 71 -74c127 0 203 106 203 305c0 224 -111 362 -232 362c-35 0 -42 -10 -42 -45v-548z" />
    <glyph glyph-name="E" unicode="E" horiz-adv-x="509" 
d="M341 713c49 0 43 19 50 19c4 0 8 -3 11 -10l66 -131c2 -3 3 -6 3 -9c0 -5 -4 -9 -7 -9c-15 0 -23 22 -51 52c-53 56 -97 66 -190 66c-44 0 -53 -3 -53 -40v-182c0 -21 5 -30 23 -30h69c31 0 48 3 54 13c8 14 7 30 16 30c6 0 8 -4 12 -12l57 -109c1 -3 2 -6 2 -8
c0 -4 -3 -7 -7 -7c-9 0 -19 15 -41 33c-40 33 -83 38 -141 38c-44 0 -44 -14 -44 -62v-284c0 -37 6 -46 51 -46h48c76 0 132 16 182 58c37 31 49 65 64 65c5 0 9 -4 9 -9c0 -4 -1 -9 -4 -14l-57 -117c-7 -14 -11 -22 -19 -22c-7 0 -9 14 -48 14h-330c-21 0 -30 2 -30 13
s20 11 38 22c8 5 10 19 10 45v553c0 26 -1 40 -10 45c-18 11 -38 11 -38 22s10 13 30 13h275z" />
    <glyph glyph-name="F" unicode="F" horiz-adv-x="484" 
d="M369 713c49 0 43 19 50 19c4 0 7 -3 10 -10l67 -131c2 -3 2 -6 2 -9c0 -5 -3 -9 -6 -9c-15 0 -23 22 -51 52c-58 61 -108 66 -209 66c-51 0 -62 -1 -62 -40v-182c0 -21 5 -30 23 -30h69c31 0 48 3 54 13c8 14 7 30 16 30c6 0 8 -4 12 -12l57 -109c1 -3 2 -6 2 -8
c0 -4 -3 -7 -7 -7c-9 0 -19 15 -41 33c-40 33 -83 38 -141 38c-44 0 -44 -14 -44 -62v-275c0 -25 1 -40 10 -45c17 -11 38 -11 38 -22s-9 -13 -30 -13h-122c-21 0 -30 2 -30 13s20 11 38 22c8 5 10 19 10 45v553c0 26 -1 40 -10 45c-18 11 -38 11 -38 22s10 13 30 13h303z
" />
    <glyph glyph-name="G" unicode="G" horiz-adv-x="582" 
d="M419 75v176c0 25 -1 39 -10 45c-17 11 -38 11 -38 22s10 13 30 13h117c20 0 30 -2 30 -13s-21 -11 -38 -22c-9 -6 -10 -20 -10 -45v-178c0 -25 2 -38 16 -47c12 -8 32 -7 32 -16c0 -11 -54 -18 -158 -18c-91 0 -160 12 -220 53c-89 61 -139 161 -139 287
c0 101 30 195 86 273c59 81 128 123 197 123c46 0 78 -21 97 -21c20 0 25 22 33 22c7 0 11 -4 14 -14l46 -137c2 -5 2 -7 2 -8c0 -6 -3 -10 -7 -10c-10 0 -17 14 -33 36c-51 72 -93 110 -152 110c-101 0 -184 -131 -184 -354c0 -216 90 -336 218 -336c68 0 71 15 71 59z" />
    <glyph glyph-name="H" unicode="H" horiz-adv-x="611" 
d="M197 398c-20 0 -27 -5 -27 -25v-293c0 -25 1 -40 10 -45c17 -11 38 -11 38 -22s-9 -13 -30 -13h-122c-21 0 -31 2 -31 13s21 11 39 22c8 5 10 19 10 45v553c0 26 -2 40 -11 45c-18 11 -38 11 -38 22s11 13 31 13h122c20 0 30 -2 30 -13s-21 -11 -38 -22
c-9 -6 -10 -20 -10 -45v-176c0 -24 5 -29 27 -29h217c22 0 27 5 27 29v176c0 25 -1 39 -10 45c-17 11 -38 11 -38 22s10 13 30 13h123c20 0 30 -2 30 -13s-21 -11 -38 -22c-9 -6 -11 -20 -11 -45v-553c0 -26 1 -40 10 -45c17 -11 39 -11 39 -22s-9 -13 -30 -13h-123
c-21 0 -30 2 -30 13s21 11 38 22c9 5 10 19 10 45v293c0 20 -7 25 -27 25h-217z" />
    <glyph glyph-name="I" unicode="I" horiz-adv-x="264" 
d="M175 80c0 -25 1 -40 10 -45c17 -11 38 -11 38 -22s-9 -13 -30 -13h-122c-21 0 -31 2 -31 13s21 11 39 22c8 5 10 19 10 45v553c0 26 -2 40 -11 45c-18 11 -38 11 -38 22s11 13 31 13h122c20 0 30 -2 30 -13s-21 -11 -38 -22c-9 -6 -10 -20 -10 -45v-553z" />
    <glyph glyph-name="J" unicode="J" horiz-adv-x="419" 
d="M249 229v404c0 26 -1 40 -10 45c-18 11 -39 11 -39 22s11 13 31 13h122c20 0 31 -2 31 -13s-22 -11 -39 -22c-9 -6 -10 -20 -10 -45v-403c0 -72 -4 -124 -22 -158c-31 -59 -78 -90 -140 -90c-94 0 -152 59 -152 154c0 80 44 134 95 134c31 0 57 -25 57 -55
c0 -20 -9 -37 -26 -46c-6 23 -20 36 -40 36c-29 0 -54 -31 -54 -79c0 -68 45 -116 103 -116c88 0 93 74 93 219z" />
    <glyph glyph-name="K" unicode="K" horiz-adv-x="565" 
d="M393 633c8 10 12 20 12 29c0 26 -46 23 -46 38c0 11 10 13 30 13h103c20 0 30 -2 30 -13c0 -16 -51 -10 -99 -67l-42 -50c-8 -9 -12 -19 -12 -30c0 -6 1 -13 4 -22l147 -451c7 -22 14 -38 23 -46c10 -9 33 -10 33 -21s-9 -13 -30 -13h-123c-21 0 -30 2 -30 13
c0 14 43 13 43 36c0 8 -3 18 -7 31l-128 414l-131 -154v-260c0 -25 1 -40 10 -45c17 -11 38 -11 38 -22s-9 -13 -30 -13h-122c-21 0 -31 2 -31 13s21 11 39 22c8 5 10 19 10 45v553c0 26 -2 40 -11 45c-18 11 -38 11 -38 22s11 13 31 13h122c20 0 30 -2 30 -13
s-21 -11 -38 -22c-9 -6 -10 -20 -10 -45v-262z" />
    <glyph glyph-name="L" unicode="L" horiz-adv-x="475" 
d="M84 633c0 26 -1 40 -10 45c-18 11 -38 11 -38 22s10 13 30 13h122c20 0 31 -2 31 -13s-22 -11 -39 -22c-9 -6 -10 -20 -10 -45v-562c0 -38 7 -46 56 -46c67 0 120 11 161 37c59 37 74 86 91 86c5 0 9 -4 9 -9c0 -4 -1 -9 -4 -14l-57 -117c-7 -14 -11 -22 -19 -22
c-7 0 -9 14 -48 14h-293c-21 0 -30 2 -30 13s20 11 38 22c8 5 10 19 10 45v553z" />
    <glyph glyph-name="M" unicode="M" horiz-adv-x="694" 
d="M637 80c2 -23 3 -37 14 -45c14 -10 36 -11 36 -22s-9 -13 -30 -13h-123c-21 0 -30 2 -30 13s20 11 36 22c7 5 11 17 11 35v10l-34 517l-180 -589c-2 -6 -7 -10 -11 -10s-8 4 -10 11l-174 589l-48 -518c0 -3 -1 -6 -1 -9c0 -14 4 -26 9 -31c13 -15 53 -14 53 -27
c0 -11 -12 -13 -38 -13h-83c-21 0 -30 2 -30 13c0 10 17 10 35 21c17 10 25 25 27 46l57 553c0 4 1 7 1 11c0 15 -5 26 -18 34c-18 11 -37 11 -37 22s11 13 31 13h130c20 0 30 -2 30 -13c0 -8 -12 -10 -28 -17s-21 -13 -21 -31c0 -7 1 -13 3 -19l145 -480l147 480
c2 6 3 12 3 19c0 13 -3 22 -11 26c-19 11 -40 11 -40 22s10 13 30 13h122c20 0 31 -2 31 -13s-21 -11 -38 -22c-7 -5 -12 -16 -12 -34c0 -3 1 -7 1 -11z" />
    <glyph glyph-name="N" unicode="N" horiz-adv-x="556" 
d="M453 633c0 24 -6 39 -16 45c-20 12 -43 11 -43 22c0 10 12 13 36 13h67c29 0 44 -2 44 -13s-28 -11 -46 -22c-11 -7 -17 -22 -17 -45v-614c0 -16 -2 -23 -10 -23c-16 0 -5 35 -36 87l-323 551v-542c0 -31 6 -49 18 -57c17 -11 46 -11 46 -22s-13 -13 -40 -13h-71
c-24 0 -36 2 -36 13c0 10 25 11 41 23c14 10 17 27 17 55v542c0 26 -3 39 -11 44c-18 11 -38 12 -38 23s11 13 31 13h93l294 -507v427z" />
    <glyph glyph-name="O" unicode="O" horiz-adv-x="611" 
d="M305 729c51 0 103 -24 146 -70c86 -93 129 -203 129 -332c0 -206 -118 -343 -275 -343s-275 137 -275 343c0 103 29 198 84 277c57 83 124 125 191 125zM480 325c0 247 -73 379 -175 379s-175 -132 -175 -379c0 -210 60 -316 175 -316s175 106 175 316z" />
    <glyph glyph-name="P" unicode="P" horiz-adv-x="516" 
d="M170 80c0 -25 1 -40 10 -45c17 -11 38 -11 38 -22s-9 -13 -30 -13h-122c-21 0 -31 2 -31 13s21 11 39 22c8 5 10 19 10 45v553c0 26 -2 40 -11 45c-17 11 -38 11 -38 22c0 15 34 16 106 16c76 0 141 -3 198 -27c101 -42 161 -130 161 -237c0 -121 -91 -199 -239 -199
c-38 0 -68 3 -91 12v-185zM170 324c0 -32 22 -46 70 -46c104 0 167 67 167 181c0 140 -79 232 -196 232c-34 0 -41 -7 -41 -38v-329z" />
    <glyph glyph-name="Q" unicode="Q" horiz-adv-x="611" 
d="M469 47c19 -28 38 -42 61 -42c27 0 37 24 44 24c4 0 8 -5 8 -10c0 -3 0 -6 -1 -10l-27 -96h-8c-63 0 -103 32 -127 98c-34 -18 -72 -27 -114 -27c-157 0 -275 137 -275 343c0 103 29 198 84 277c57 83 124 125 191 125c51 0 103 -24 146 -70c86 -91 129 -204 129 -334
c0 -115 -36 -205 -111 -278zM406 48c-18 59 -53 91 -95 91c-26 0 -44 -14 -53 -14c-5 0 -9 2 -9 5c0 14 32 38 76 38s88 -25 117 -73c27 61 39 137 39 229c0 248 -74 380 -176 380s-175 -132 -175 -379c0 -210 60 -316 175 -316c37 0 72 14 101 39z" />
    <glyph glyph-name="R" unicode="R" horiz-adv-x="562" 
d="M170 336c0 -32 24 -46 75 -46c111 0 178 68 178 177c0 129 -86 224 -206 224c-40 0 -47 -6 -47 -38v-317zM66 0c-21 0 -31 2 -31 13s21 12 39 23c8 5 10 19 10 45v552c0 26 -2 40 -11 45c-17 11 -38 11 -38 22c0 15 34 16 106 16c248 0 378 -95 378 -252
c0 -89 -47 -150 -140 -182l107 -207c30 -59 73 -47 73 -64c0 -9 -12 -11 -36 -11h-136c-22 0 -33 1 -33 10c0 16 43 16 43 43c0 11 -5 21 -11 34l-87 182c-18 -2 -38 -4 -57 -4c-24 0 -48 2 -72 5v-189c0 -25 1 -40 10 -45c17 -11 38 -12 38 -23s-9 -13 -30 -13h-122z" />
    <glyph glyph-name="S" unicode="S" horiz-adv-x="551" 
d="M112 2l-93 150c-4 7 -8 12 -8 20c0 7 3 11 10 11c11 0 24 -19 54 -48c80 -76 140 -124 213 -124c87 0 148 69 148 164c0 55 -20 101 -58 134c-43 38 -91 53 -139 71s-99 32 -143 70c-33 28 -50 68 -50 114c0 91 72 164 166 164c49 0 84 -20 104 -20c10 0 14 20 22 20
c5 0 10 -4 15 -13l70 -116c2 -4 3 -7 3 -10c0 -5 -4 -10 -9 -10c-14 0 -25 22 -52 48c-53 50 -95 77 -143 77c-60 0 -106 -45 -106 -106c0 -84 64 -105 172 -144c75 -27 138 -50 184 -107c29 -36 47 -87 47 -141c0 -125 -93 -220 -223 -220c-73 0 -115 24 -132 24
s-22 -24 -33 -24c-7 0 -13 6 -19 16z" />
    <glyph glyph-name="T" unicode="T" horiz-adv-x="546" 
d="M229 651c0 39 -10 40 -54 40c-52 0 -89 -23 -127 -72c-25 -33 -28 -58 -42 -58c-5 0 -10 5 -10 10c0 1 1 8 5 19l44 126c3 10 6 14 13 14c5 0 9 -17 76 -17h277c67 0 70 17 75 17c7 0 10 -4 13 -14l45 -126c3 -9 4 -16 4 -19c0 -6 -5 -10 -10 -10c-12 0 -14 18 -28 39
c-40 62 -82 91 -140 91c-44 0 -55 -1 -55 -40v-571c0 -25 1 -40 10 -45c17 -11 39 -11 39 -22s-10 -13 -31 -13h-122c-21 0 -30 2 -30 13s20 11 38 22c8 5 10 19 10 45v571z" />
    <glyph glyph-name="U" unicode="U" horiz-adv-x="551" 
d="M63 232l29 401c0 5 1 9 1 13c0 17 -4 27 -11 32c-18 11 -39 11 -39 22s11 13 31 13h122c20 0 30 -2 30 -13s-23 -12 -36 -22c-8 -6 -14 -22 -15 -45l-27 -425c-1 -21 -2 -39 -2 -54c0 -99 49 -144 159 -144s158 51 158 159c0 3 -1 31 -4 84l-21 380c-1 23 -9 39 -21 45
c-22 12 -43 11 -43 22c0 10 12 13 36 13h67c29 0 44 -2 44 -13c0 -10 -22 -11 -43 -23c-9 -6 -15 -20 -15 -39v-5l20 -389c2 -45 4 -72 4 -83c0 -121 -61 -177 -195 -177c-155 0 -231 63 -231 194c0 14 0 32 2 54z" />
    <glyph glyph-name="V" unicode="V" horiz-adv-x="565" 
d="M260 -6l-202 647c-16 52 -61 48 -61 62c0 9 8 10 27 10h145c15 0 21 -1 21 -10c0 -16 -47 -10 -47 -43c0 -4 1 -15 6 -30l164 -541l152 516c4 14 6 28 6 42c0 16 -9 30 -23 37c-18 9 -34 8 -34 19c0 7 10 10 28 10h113c16 0 22 -2 22 -10c0 -9 -8 -11 -21 -16
c-42 -17 -47 -33 -59 -72l-188 -621h-49z" />
    <glyph glyph-name="W" unicode="W" horiz-adv-x="822" 
d="M228 -6l-169 647c-5 19 -9 32 -28 43c-14 8 -30 9 -30 19c0 9 8 10 27 10h145c15 0 21 -1 21 -10c0 -16 -47 -10 -47 -43c0 -13 2 -23 4 -30l134 -533l121 428l-30 116c-5 19 -9 32 -28 43c-14 8 -30 9 -30 19c0 9 8 10 27 10h145c15 0 21 -1 21 -10
c0 -16 -47 -10 -47 -42c0 -14 1 -24 3 -31l130 -519l128 494c4 14 6 28 6 42c0 16 -8 30 -22 37c-18 9 -34 8 -34 19c0 7 9 10 27 10h113c16 0 22 -2 22 -10c0 -9 -8 -11 -21 -16c-38 -15 -48 -30 -59 -72l-165 -621h-51l-124 492l-137 -492h-52z" />
    <glyph glyph-name="X" unicode="X" horiz-adv-x="542" 
d="M472 80c34 -63 74 -56 74 -67c0 -12 -13 -13 -40 -13h-137c-21 0 -30 2 -30 13c0 3 5 9 7 9c15 0 38 16 38 33c0 7 -4 15 -9 25l-129 246l-135 -246c-5 -9 -7 -17 -7 -23c0 -15 8 -21 24 -27c18 -7 31 -9 31 -17c0 -11 -11 -13 -34 -13h-98c-18 0 -27 2 -27 12
c0 17 51 13 82 68l151 272l-152 281c-10 19 -17 32 -26 40c-18 15 -41 15 -41 18c0 1 -6 4 -6 9c0 12 12 13 39 13h133c21 0 30 -3 30 -13c0 -13 -43 -12 -43 -42c0 -8 2 -16 7 -25l116 -218l121 218c4 8 6 16 6 23c0 33 -48 29 -48 44c0 11 10 13 30 13h103
c20 0 30 -2 30 -13c0 -10 -17 -12 -42 -22c-22 -9 -38 -23 -50 -45l-136 -240z" />
    <glyph glyph-name="Y" unicode="Y" horiz-adv-x="523" 
d="M309 80c0 -25 2 -40 11 -45c17 -11 38 -11 38 -22s-9 -13 -30 -13h-123c-21 0 -30 2 -30 13s20 11 38 22c8 5 11 19 11 45v140c0 34 -7 58 -19 84l-153 337c-24 54 -61 49 -61 62c0 8 8 10 27 10h151c15 0 21 -1 21 -10c0 -16 -47 -9 -47 -44c0 -7 4 -16 10 -29l141 -330
l136 305c9 20 12 39 12 47c0 13 -9 26 -22 32c-18 9 -33 8 -33 19c0 7 9 10 27 10h113c16 0 23 -2 23 -10c0 -9 -9 -11 -22 -16c-38 -15 -48 -34 -65 -72l-132 -294c-16 -35 -22 -64 -22 -100v-141z" />
    <glyph glyph-name="Z" unicode="Z" horiz-adv-x="472" 
d="M14 36l351 654h-81c-64 0 -110 -23 -159 -74c-24 -25 -31 -50 -46 -50c-4 0 -7 4 -7 10c0 3 3 9 7 18l58 119c5 10 7 16 15 16c6 0 4 -16 46 -16h238c17 0 25 -1 25 -9c0 -3 -1 -8 -4 -14l-355 -667h116c70 0 122 14 170 54c42 35 54 75 72 75c5 0 8 -4 8 -12
c0 -2 -1 -7 -4 -12l-65 -128c-6 -12 -11 -18 -18 -18c-8 0 -16 18 -78 18h-278c-14 0 -21 3 -21 9c0 5 3 14 10 27z" />
    <glyph glyph-name="bracketleft" unicode="[" horiz-adv-x="243" 
d="M165 -74h65c8 0 13 -3 13 -11v-11c0 -8 -5 -10 -15 -10h-128c-10 0 -16 7 -16 18v784c0 11 6 17 16 17h128c10 0 15 -1 15 -9v-11c0 -8 -5 -11 -13 -11h-65c-12 0 -17 -7 -17 -20v-717c0 -13 5 -19 17 -19z" />
    <glyph glyph-name="backslash" unicode="\" horiz-adv-x="278" 
d="M328 -93h-58l-294 806h57z" />
    <glyph glyph-name="bracketright" unicode="]" horiz-adv-x="243" 
d="M78 -74c12 0 17 6 17 19v717c0 13 -5 20 -17 20h-65c-9 0 -13 3 -13 11v11c0 8 4 9 15 9h129c10 0 15 -6 15 -17v-784c0 -11 -5 -18 -15 -18h-129c-11 0 -15 2 -15 10v11c0 8 4 11 13 11h65z" />
    <glyph glyph-name="asciicircum" unicode="^" horiz-adv-x="1000" 
d="M456 714h87l254 -276h-45l-253 213l-254 -213h-44z" />
    <glyph glyph-name="underscore" unicode="_" 
d="M0 -178h500v-58h-500v58z" />
    <glyph glyph-name="quoteleft" unicode="&#x2018;" horiz-adv-x="231" 
d="M157 609c0 -25 -16 -42 -38 -42c-25 0 -43 23 -43 59c0 59 52 104 72 104c5 0 10 -4 10 -9c0 -13 -44 -28 -44 -60c0 -10 6 -9 16 -13c18 -7 27 -19 27 -39z" />
    <glyph glyph-name="a" unicode="a" horiz-adv-x="387" 
d="M264 42c-24 -33 -57 -50 -101 -50c-78 0 -135 57 -135 135c0 75 67 145 138 145c30 0 56 -12 76 -34c-5 109 -22 157 -80 157c-27 0 -50 -11 -66 -33c-12 -16 -12 -37 -22 -37c-5 0 -8 4 -8 11c0 41 49 92 122 92c41 0 73 -15 96 -47c16 -22 20 -59 25 -112l18 -185
c4 -37 11 -52 32 -52c29 0 23 33 35 33c5 0 7 -3 7 -10c0 -39 -23 -63 -63 -63c-38 0 -60 14 -74 50zM189 19c46 0 68 28 68 84c0 98 -27 147 -78 147c-45 0 -76 -40 -76 -108c0 -76 37 -123 86 -123z" />
    <glyph glyph-name="b" unicode="b" horiz-adv-x="417" 
d="M62 8v601c0 25 -2 31 -15 34c-14 4 -26 1 -26 11c0 8 13 12 31 22c46 25 67 42 72 42s7 -6 7 -17v-354c22 52 56 80 97 80c77 0 155 -97 155 -232c0 -124 -66 -203 -159 -203c-59 0 -94 25 -110 25c-26 0 -37 -25 -45 -25c-5 0 -7 5 -7 16zM130 118c0 -64 28 -99 70 -99
c58 0 110 73 110 193c0 122 -37 187 -91 187c-50 0 -89 -57 -89 -155v-126z" />
    <glyph glyph-name="c" unicode="c" horiz-adv-x="351" 
d="M334 372l-40 -88c-4 -9 -7 -14 -13 -14c-5 0 -7 5 -7 14c0 4 1 11 1 19c0 65 -32 105 -74 105c-50 0 -88 -58 -88 -159c0 -142 50 -222 124 -222c41 0 71 22 85 65c5 14 4 22 11 22c6 0 9 -4 9 -11c0 -63 -51 -114 -136 -114c-99 0 -171 77 -171 194c0 61 20 121 57 173
c34 48 74 72 120 72c44 0 88 -19 122 -56z" />
    <glyph glyph-name="d" unicode="d" horiz-adv-x="428" 
d="M290 609c0 25 -2 31 -15 34c-14 4 -25 1 -25 11c0 8 12 12 30 22c46 25 68 43 73 43s6 -7 6 -18v-626c0 -24 2 -34 15 -41s25 -3 25 -13s-13 -10 -41 -17c-36 -9 -55 -14 -59 -14c-6 0 -9 6 -9 19v44c-23 -40 -58 -61 -102 -61c-81 0 -150 79 -150 198
c0 138 82 238 156 238c41 0 75 -27 96 -79v260zM290 130v116c0 99 -40 155 -88 155c-51 0 -88 -62 -88 -177c0 -124 48 -194 107 -194c42 0 69 37 69 100z" />
    <glyph glyph-name="e" unicode="e" horiz-adv-x="370" 
d="M116 199c12 -112 52 -167 125 -167c44 0 73 20 88 60c5 13 5 23 13 23c5 0 8 -5 8 -14c0 -59 -56 -112 -137 -112c-110 0 -179 76 -179 203c0 137 79 236 159 236c74 0 138 -65 160 -181zM112 219l104 22c38 8 48 14 48 41c0 65 -40 124 -82 124s-72 -50 -72 -142
c0 -12 0 -27 2 -45z" />
    <glyph glyph-name="f" unicode="f" horiz-adv-x="252" 
d="M157 84c0 -29 3 -48 9 -54c8 -9 31 -10 31 -21c0 -6 -6 -9 -19 -9h-111c-13 0 -20 3 -20 9c0 11 23 12 31 21c6 6 9 24 9 54v298h-62v35h62c-2 74 -6 123 -6 147c0 100 41 154 101 154c46 0 82 -39 82 -86c0 -37 -24 -63 -53 -63c-25 0 -39 18 -39 51v7c9 -2 16 -3 19 -3
c18 0 28 11 28 32c0 24 -17 42 -41 42c-34 0 -52 -26 -52 -80c0 -61 21 -125 30 -201h94v-35h-93v-298z" />
    <glyph glyph-name="g" unicode="g" horiz-adv-x="370" 
d="M112 147c-49 29 -75 72 -75 127c0 86 67 154 154 154c10 0 20 -2 32 -4c9 61 43 96 86 96c29 0 51 -21 51 -45c0 -22 -13 -34 -34 -34c-22 0 -34 21 -54 21c-16 0 -29 -15 -33 -43c63 -32 98 -87 98 -147c0 -80 -62 -142 -151 -142c-16 0 -31 6 -43 6
c-23 0 -38 -14 -38 -33c0 -34 50 -27 144 -41c85 -13 129 -53 129 -111c0 -71 -68 -121 -187 -121c-114 0 -180 44 -180 103c0 40 28 70 82 85c-34 11 -52 30 -52 56c0 31 25 58 71 73zM120 12c-24 -13 -39 -39 -39 -70c0 -53 43 -91 115 -91c71 0 113 34 113 75
c0 64 -58 66 -189 86zM190 150c48 0 73 37 73 111c0 97 -28 147 -81 147c-44 0 -69 -43 -69 -125c0 -87 28 -133 77 -133z" />
    <glyph glyph-name="h" unicode="h" horiz-adv-x="419" 
d="M134 84c0 -29 4 -48 10 -54c8 -9 31 -10 31 -21c0 -6 -7 -9 -20 -9h-111c-13 0 -20 3 -20 9c0 11 23 12 31 21c6 6 10 24 10 54v524c0 25 -2 31 -15 34c-14 4 -25 1 -25 11c0 8 12 12 30 22c46 25 68 43 73 43s6 -6 6 -17v-362c23 58 64 89 107 89c68 0 93 -42 103 -129
l22 -196c4 -39 7 -63 23 -76c9 -7 25 -8 25 -18c0 -6 -8 -9 -22 -9h-109c-14 0 -21 2 -21 9c0 15 38 9 38 47c0 8 -1 20 -3 37l-25 216c-7 58 -17 81 -54 81c-43 0 -84 -49 -84 -143v-163z" />
    <glyph glyph-name="i" unicode="i" horiz-adv-x="222" 
d="M148 84c0 -29 4 -48 10 -54c8 -9 31 -10 31 -21c0 -6 -7 -9 -20 -9h-111c-13 0 -20 3 -20 9c0 11 23 12 31 21c6 6 10 24 10 54v235c0 25 -2 31 -15 34c-14 4 -25 1 -25 11c0 8 12 12 30 22c46 25 68 43 73 43s6 -6 6 -17v-328zM101 526c-22 0 -37 15 -37 36
c0 23 27 46 56 46c22 0 37 -14 37 -32c0 -27 -26 -50 -56 -50z" />
    <glyph glyph-name="j" unicode="j" horiz-adv-x="220" 
d="M149 -74c0 -67 -17 -97 -70 -97c-40 0 -63 24 -63 66c0 18 2 27 9 27c14 0 3 -49 31 -49c19 0 23 16 23 48v398c0 25 -1 31 -14 34c-14 4 -26 1 -26 11c0 8 12 12 30 22c46 25 68 43 73 43s7 -6 7 -17v-486zM101 526c-22 0 -37 15 -37 36c0 23 27 46 56 46
c22 0 37 -14 37 -32c0 -27 -26 -50 -56 -50z" />
    <glyph glyph-name="k" unicode="k" horiz-adv-x="396" 
d="M134 185l127 150c10 12 15 22 15 32c0 26 -42 27 -42 40c0 6 7 10 20 10h111c13 0 20 -4 20 -10c0 -14 -48 -16 -84 -58l-34 -40l95 -247c17 -43 46 -42 46 -53c0 -6 -7 -9 -20 -9h-119c-13 0 -20 3 -20 9c0 15 41 12 41 38c0 7 -2 16 -6 27l-67 180l-83 -98v-72
c0 -29 4 -48 10 -54c8 -9 31 -10 31 -21c0 -6 -7 -9 -20 -9h-111c-13 0 -20 3 -20 9c0 11 23 12 31 21c6 6 10 24 10 54v524c0 25 -2 31 -15 34c-14 4 -25 1 -25 11c0 8 12 12 30 22c46 25 68 43 73 43s6 -6 6 -17v-516z" />
    <glyph glyph-name="l" unicode="l" horiz-adv-x="220" 
d="M148 84c0 -29 4 -48 10 -54c8 -9 31 -10 31 -21c0 -6 -7 -9 -20 -9h-111c-13 0 -20 3 -20 9c0 11 23 12 31 21c6 6 10 24 10 54v524c0 25 -2 31 -15 34c-14 4 -25 1 -25 11c0 8 12 12 30 22c46 25 68 43 73 43s6 -6 6 -17v-617z" />
    <glyph glyph-name="m" unicode="m" horiz-adv-x="635" 
d="M139 84c0 -29 3 -48 9 -54c8 -9 31 -10 31 -21c0 -6 -7 -9 -20 -9h-110c-13 0 -20 3 -20 9c0 11 23 12 31 21c6 6 9 24 9 54v235c0 25 -1 31 -14 34c-14 4 -26 1 -26 11c0 8 13 12 31 22c46 25 67 43 72 43s7 -6 7 -17v-73c24 59 63 89 113 89c49 0 83 -27 101 -79
c26 51 66 79 105 79c68 0 92 -42 102 -129l22 -196c4 -39 7 -63 23 -76c9 -7 25 -8 25 -18c0 -6 -8 -9 -22 -9h-109c-14 0 -20 2 -20 9c0 15 37 9 37 47c0 8 -1 20 -3 37l-24 216c-7 58 -18 81 -55 81c-46 0 -80 -48 -80 -143v-163c0 -29 4 -48 10 -54c8 -9 31 -10 31 -21
c0 -6 -7 -9 -20 -9h-111c-13 0 -20 3 -20 9c0 11 23 12 31 21c6 6 10 24 10 54v225c0 56 -15 83 -55 83c-51 0 -91 -50 -91 -145v-163z" />
    <glyph glyph-name="n" unicode="n" horiz-adv-x="424" 
d="M139 84c0 -29 3 -48 9 -54c8 -9 31 -10 31 -21c0 -6 -7 -9 -20 -9h-110c-13 0 -20 3 -20 9c0 11 23 12 31 21c6 6 9 24 9 54v235c0 25 -1 31 -14 34c-14 4 -26 1 -26 11c0 8 13 12 31 22c46 25 67 43 72 43s7 -6 7 -17v-73c23 58 64 89 107 89c68 0 93 -42 103 -129
l22 -196c4 -39 6 -63 22 -76c9 -7 25 -8 25 -18c0 -6 -7 -9 -21 -9h-110c-14 0 -20 2 -20 9c0 15 37 9 37 47c0 8 -1 20 -3 37l-24 216c-7 58 -18 81 -55 81c-43 0 -83 -49 -83 -143v-163z" />
    <glyph glyph-name="o" unicode="o" horiz-adv-x="424" 
d="M194 429c41 0 78 -16 116 -47c56 -45 88 -115 88 -194c0 -118 -74 -199 -175 -199c-105 0 -191 93 -191 224c0 121 80 216 162 216zM322 133c0 73 -20 158 -51 217c-19 37 -51 59 -81 59c-51 0 -81 -49 -81 -141c0 -157 58 -257 127 -257c55 0 86 43 86 122z" />
    <glyph glyph-name="p" unicode="p" horiz-adv-x="424" 
d="M139 -87c0 -29 3 -48 9 -54c8 -9 31 -10 31 -21c0 -6 -7 -9 -20 -9h-110c-13 0 -20 3 -20 9c0 11 23 12 31 21c5 6 9 24 9 54v406c0 25 -1 31 -14 34c-14 4 -26 1 -26 11c0 8 13 12 31 22c46 25 67 43 72 43s7 -6 7 -17v-66c21 52 59 81 98 81c76 0 154 -96 154 -240
c0 -119 -69 -198 -150 -198c-45 0 -80 22 -102 62v-138zM139 244v-116c0 -64 27 -100 69 -100c60 0 111 79 111 212c0 102 -38 160 -90 160c-51 0 -90 -57 -90 -156z" />
    <glyph glyph-name="q" unicode="q" horiz-adv-x="424" 
d="M267 -171c-13 0 -20 3 -20 9c0 11 23 12 31 21c5 6 9 24 9 54v138c-23 -40 -57 -62 -102 -62c-80 0 -149 80 -149 194c0 57 17 114 51 165s82 79 122 79c43 0 74 -27 96 -27c26 0 37 30 45 30c5 0 7 -7 7 -19v-498c0 -29 3 -48 9 -54c8 -9 31 -10 31 -21
c0 -6 -6 -9 -19 -9h-111zM288 128v116c0 109 -24 163 -82 163c-54 0 -95 -65 -95 -185c0 -122 50 -194 107 -194c42 0 70 36 70 100z" />
    <glyph glyph-name="r" unicode="r" horiz-adv-x="300" 
d="M139 271c22 102 69 156 119 156c34 0 58 -13 58 -24c0 -2 0 -6 -1 -9l-16 -80c-2 -11 -4 -16 -12 -16c-7 0 -8 9 -13 27c-8 31 -19 47 -45 47c-47 0 -90 -82 -90 -210v-78c0 -30 3 -48 9 -54c9 -9 38 -9 38 -21c0 -6 -8 -9 -24 -9h-113c-13 0 -20 3 -20 9
c0 11 23 12 31 21c6 6 9 24 9 54v235c0 25 -1 31 -14 34c-14 4 -26 1 -26 11c0 8 13 12 31 22c46 25 67 43 72 43s7 -6 7 -17v-141z" />
    <glyph glyph-name="s" unicode="s" horiz-adv-x="345" 
d="M83 -1l-53 108c-3 5 -4 10 -4 13c0 7 4 11 9 11c11 0 16 -16 31 -37c41 -55 81 -83 119 -83c41 0 70 33 70 82c0 43 -24 78 -67 98c-86 39 -148 57 -148 132c0 60 42 104 101 104c33 0 55 -12 64 -12c11 0 18 12 24 12c7 0 8 -4 12 -12l41 -84c4 -7 5 -11 5 -12
c0 -4 -5 -8 -10 -8c-7 0 -14 12 -30 31c-35 40 -62 66 -101 66c-34 0 -57 -22 -57 -54c0 -29 19 -52 54 -65c49 -18 88 -30 111 -47c41 -31 61 -71 61 -121c0 -73 -54 -132 -128 -132c-34 0 -56 13 -67 13c-13 0 -20 -15 -26 -15c-5 0 -7 4 -11 12z" />
    <glyph glyph-name="t" unicode="t" horiz-adv-x="251" 
d="M76 160v222h-33c-11 0 -17 3 -17 9c0 12 38 22 69 75c34 59 30 102 43 102c5 0 7 -6 7 -17v-134h83v-35h-83v-293c0 -45 6 -67 39 -67c40 0 45 47 58 47c4 0 6 -3 6 -9c0 -30 -37 -71 -93 -71c-52 0 -85 32 -85 81c0 24 6 54 6 90z" />
    <glyph glyph-name="u" unicode="u" horiz-adv-x="419" 
d="M276 319c0 25 -2 31 -15 34c-14 4 -25 1 -25 11c0 8 12 12 30 22c46 25 68 43 73 43s6 -6 6 -17v-352c0 -47 42 -36 42 -52c0 -6 -7 -8 -21 -8h-74c-12 0 -16 3 -16 16v57c-20 -51 -65 -81 -115 -81c-69 0 -95 42 -95 129v198c0 25 -1 31 -14 34c-14 4 -26 1 -26 11
c0 8 12 12 30 22c46 25 68 43 73 43s7 -6 7 -17v-283c0 -66 10 -99 55 -99c53 0 85 47 85 143v146z" />
    <glyph glyph-name="v" unicode="v" horiz-adv-x="356" 
d="M36 356c-14 44 -52 40 -52 52c0 7 7 9 23 9h123c13 0 18 0 18 -8c0 -14 -40 -9 -40 -37c0 -5 1 -15 4 -26l90 -277l80 255c3 10 8 20 8 33c0 41 -46 39 -46 52c0 6 7 8 21 8h88c12 0 17 -3 17 -9c0 -14 -38 -4 -61 -74l-111 -339h-45z" />
    <glyph glyph-name="w" unicode="w" horiz-adv-x="528" 
d="M469 324c4 13 7 24 7 36c0 36 -45 36 -45 49c0 6 7 8 21 8h88c12 0 17 -3 17 -9c0 -14 -39 -5 -61 -74l-107 -339h-41l-76 263l-87 -263h-38l-111 361c-13 44 -52 40 -52 52c0 7 7 9 23 9h123c13 0 18 0 18 -8c0 -14 -40 -9 -40 -37c0 -4 0 -14 4 -26l81 -266l66 215
l-15 61c-11 42 -50 41 -50 52c0 7 7 9 22 9h116c12 0 17 0 17 -8c0 -13 -38 -9 -38 -37c0 -4 2 -14 5 -26l78 -267z" />
    <glyph glyph-name="x" unicode="x" horiz-adv-x="368" 
d="M63 356c-28 43 -57 43 -57 52c0 7 8 9 24 9h123c13 0 18 0 18 -8c0 -13 -36 -13 -36 -33c0 -8 4 -19 13 -32l56 -87l53 86c7 12 12 21 12 29c0 23 -42 25 -42 37c0 6 7 8 21 8h101c12 0 17 -3 17 -9c0 -15 -41 -8 -80 -66l-69 -104l111 -177c27 -43 56 -43 56 -52
c0 -7 -7 -9 -23 -9h-123c-13 0 -18 0 -18 7c0 13 35 15 35 34c0 8 -4 18 -13 32l-65 107l-69 -106c-8 -12 -12 -22 -12 -27c0 -26 42 -26 42 -39c0 -6 -7 -8 -21 -8h-101c-12 0 -17 2 -17 8c0 14 44 14 80 67l85 124z" />
    <glyph glyph-name="y" unicode="y" horiz-adv-x="351" 
d="M39 356c-16 46 -52 40 -52 52c0 7 8 9 24 9h123c13 0 18 0 18 -8c0 -14 -40 -9 -40 -37c0 -6 1 -17 4 -26l86 -250l82 231c6 18 8 32 8 38c0 30 -44 31 -44 44c0 6 7 8 21 8h87c12 0 18 -3 18 -9c0 -14 -39 -6 -64 -74l-127 -355c-36 -100 -65 -151 -129 -151
c-30 0 -43 9 -45 30l-8 77c0 3 -1 6 -1 9c0 8 3 13 8 13c9 0 10 -8 15 -19c16 -35 29 -52 58 -52c38 0 82 60 82 107c0 13 -2 22 -6 32z" />
    <glyph glyph-name="z" unicode="z" horiz-adv-x="352" 
d="M10 22l257 376h-17c-68 0 -116 -12 -148 -44c-36 -35 -46 -57 -55 -57c-5 0 -8 4 -8 9c0 3 2 6 6 13l53 98c4 7 5 11 14 11c4 0 9 -11 38 -11h184c11 0 16 -2 16 -6c0 -2 -1 -7 -6 -14l-255 -377c12 0 24 -1 36 -1c66 0 113 10 158 48c38 33 48 61 60 61c4 0 8 -4 8 -8
c0 -2 -2 -7 -6 -14l-62 -106c-3 -6 -5 -10 -11 -10c-3 0 -10 10 -66 10h-187c-10 0 -15 3 -15 8c0 3 1 7 6 14z" />
    <glyph glyph-name="braceleft" unicode="{" 
d="M413 740v-25c-99 -1 -120 -34 -120 -129v-70c0 -128 -18 -183 -140 -206c122 -23 140 -78 140 -206v-70c0 -95 21 -127 120 -128v-25h-5c-144 0 -185 42 -185 169v104c0 100 -28 133 -137 142v29c110 10 137 42 137 142v104c0 127 41 169 185 169h5z" />
    <glyph glyph-name="bar" unicode="|" 
d="M219 764h62v-1000h-62v1000z" />
    <glyph glyph-name="braceright" unicode="}" 
d="M87 740h5c143 0 185 -42 185 -169v-104c0 -100 27 -132 137 -142v-29c-109 -9 -137 -42 -137 -142v-104c0 -127 -42 -169 -185 -169h-5v25c99 1 120 33 120 128v70c0 128 18 183 140 206c-122 23 -140 78 -140 206v70c0 95 -21 128 -120 129v25z" />
    <glyph glyph-name="asciitilde" unicode="~" horiz-adv-x="833" 
d="M747 370v-64c-66 -47 -129 -70 -189 -70c-29 0 -60 6 -93 17c-69 23 -128 50 -190 50c-59 0 -117 -28 -188 -78v65c68 47 131 71 189 71c52 0 97 -16 142 -32c48 -17 91 -35 141 -35c60 0 118 27 188 76z" />
    <glyph glyph-name="exclamdown" unicode="&#xa1;" horiz-adv-x="252" 
d="M126 575c13 0 11 -22 15 -77c19 -270 35 -416 35 -436c0 -50 -15 -73 -50 -73s-50 23 -50 73c0 20 15 165 34 436c4 54 3 77 16 77zM126 650c-22 0 -37 16 -37 40c0 25 15 40 37 40s36 -16 36 -40s-14 -40 -36 -40z" />
    <glyph glyph-name="cent" unicode="&#xa2;" horiz-adv-x="463" 
d="M234 413c-48 -11 -81 -77 -81 -189c0 -94 31 -157 81 -179v368zM263 486v-49c47 -2 86 -19 119 -57l-43 -94h-13c-1 86 -16 126 -63 130v-377c9 -2 17 -3 24 -3c32 0 59 18 72 46c12 26 9 48 21 48c6 0 8 -4 8 -12c0 -66 -47 -118 -123 -118h-2v-65h-29v65
c-97 15 -148 82 -148 198c0 125 58 213 148 237v51h29z" />
    <glyph glyph-name="sterling" unicode="&#xa3;" horiz-adv-x="463" 
d="M198 391h153v-32h-143c11 -30 17 -61 17 -94c0 -58 -15 -116 -46 -174c62 -23 113 -39 160 -39c58 0 91 31 91 87c16 -15 23 -33 23 -55c0 -59 -38 -93 -109 -93c-51 0 -109 22 -182 62c-29 -41 -61 -61 -100 -61s-61 21 -61 55c0 43 30 71 80 71c21 0 46 -6 77 -19
c6 24 10 48 10 71c0 59 -19 121 -52 189h-94v32h82c-18 42 -27 83 -27 123c0 125 83 206 210 206c92 0 150 -50 150 -112c0 -47 -28 -77 -72 -77c-38 0 -61 22 -61 57c0 12 4 21 12 29c10 -13 21 -20 35 -20c22 0 34 11 34 33c0 39 -40 69 -101 69c-82 0 -136 -57 -136 -148
c0 -52 19 -101 50 -160zM143 67c-28 16 -50 25 -71 25c-30 0 -49 -17 -49 -43c0 -23 16 -38 42 -38c29 0 56 19 78 56z" />
    <glyph glyph-name="fraction" unicode="&#x2044;" horiz-adv-x="167" 
d="M-167 -9l449 729h51l-449 -729h-51z" />
    <glyph glyph-name="yen" unicode="&#xa5;" horiz-adv-x="463" 
d="M262 80c0 -26 2 -40 10 -45c17 -11 38 -11 38 -22s-9 -13 -30 -13h-102c-21 0 -30 2 -30 13s20 11 38 22c9 5 11 19 11 45v139c0 19 -2 37 -7 54h-153c-8 0 -13 2 -13 8v10c0 7 4 10 13 10h142l-43 96h-99c-8 0 -13 2 -13 7v10c0 8 4 11 13 11h85l-97 214
c-24 53 -61 48 -61 61c0 8 8 11 27 11h130c15 0 21 -1 21 -10c0 -16 -47 -8 -47 -43c0 -8 4 -17 10 -30l142 -329l135 304c9 20 12 39 12 47c0 13 -8 26 -21 32c-18 9 -34 8 -34 19c0 7 9 10 27 10h113c16 0 23 -2 23 -10c0 -9 -8 -11 -21 -16c-39 -16 -49 -35 -66 -72
l-86 -188h83c8 0 13 -2 13 -8v-10c0 -6 -4 -10 -13 -10h-95l-43 -96h138c8 0 13 -2 13 -7v-11c0 -7 -4 -10 -13 -10h-145c-4 -17 -5 -35 -5 -53v-140z" />
    <glyph glyph-name="florin" unicode="&#x192;" horiz-adv-x="463" 
d="M193 359h-82v30h86l26 213c10 80 42 119 102 119c51 0 86 -36 86 -89c0 -41 -23 -65 -56 -65c-26 0 -43 16 -43 40c0 9 3 19 9 28c7 -6 12 -10 18 -10c13 0 25 12 25 29c0 26 -19 44 -44 44c-32 0 -51 -30 -51 -89c0 -50 4 -102 4 -155c0 -17 -1 -39 -3 -65h82v-30h-86
l-51 -397c-11 -87 -42 -129 -105 -129c-46 0 -73 30 -73 84c0 8 1 17 2 27c12 -34 25 -49 54 -49c31 0 45 26 51 77z" />
    <glyph glyph-name="section" unicode="&#xa7;" 
d="M325 167c42 -38 63 -83 63 -136c0 -89 -65 -151 -166 -151c-71 0 -117 39 -117 88c0 37 26 63 58 63c29 0 49 -21 49 -50c0 -4 -1 -10 -3 -16c-8 8 -16 12 -23 12c-14 0 -24 -12 -24 -29c0 -26 24 -45 64 -45c60 0 102 41 102 99c0 50 -23 86 -73 119
c-64 41 -116 69 -144 101c-27 31 -40 60 -40 94c0 65 37 112 106 134c-46 38 -69 78 -69 127c0 87 65 151 157 151c71 0 115 -36 115 -88c0 -35 -23 -59 -56 -59c-28 0 -48 19 -48 44c0 5 1 10 3 18c10 -6 18 -8 25 -8c13 0 22 9 22 23c0 25 -27 48 -67 48
c-54 0 -94 -37 -94 -88c0 -66 49 -98 132 -151c78 -49 130 -82 130 -161c0 -61 -37 -113 -102 -139zM308 180c43 19 66 52 66 95c0 54 -63 94 -180 163c-47 -16 -72 -48 -72 -89c0 -55 66 -96 186 -169z" />
    <glyph glyph-name="currency" unicode="&#xa4;" horiz-adv-x="463" 
d="M355 273h-205c9 -158 56 -240 142 -240c55 0 90 34 109 99c11 37 5 44 20 44c7 0 11 -6 11 -19c0 -92 -69 -166 -155 -166c-56 0 -103 26 -139 73c-40 54 -65 124 -72 209h-48c-7 0 -13 2 -13 6v1l2 10c2 7 4 11 13 11h44c-1 9 -1 18 -1 28c0 23 1 46 4 68h-43
c-7 0 -14 2 -14 6v1l3 10c2 8 4 11 13 11h44c13 84 43 160 87 222c34 48 76 73 117 73c35 0 61 -18 71 -18c11 0 14 19 22 19c6 0 8 -8 11 -19l34 -126c2 -6 2 -10 2 -12c0 -7 -6 -11 -9 -11c-9 0 -14 15 -25 36c-36 70 -65 108 -105 108c-65 0 -112 -97 -124 -272h229
c7 0 13 -2 13 -7v-1l-2 -10c-2 -6 -4 -10 -13 -10h-228c-1 -20 -2 -41 -2 -64c0 -11 0 -22 1 -32h208c8 0 14 -3 14 -7v-1l-3 -10c-1 -6 -4 -10 -13 -10z" />
    <glyph glyph-name="quotesingle" unicode="'" horiz-adv-x="170" 
d="M93 422h-16l-32 223c-1 7 -1 13 -1 19c0 33 15 50 41 50s42 -17 42 -49c0 -5 -1 -12 -2 -20z" />
    <glyph glyph-name="quotedblleft" unicode="&#x201c;" horiz-adv-x="359" 
d="M157 609c0 -25 -16 -42 -38 -42c-25 0 -43 23 -43 59c0 59 52 104 72 104c5 0 10 -4 10 -9c0 -13 -44 -28 -44 -60c0 -10 6 -9 16 -13c18 -7 27 -19 27 -39zM283 609c0 -25 -16 -42 -38 -42c-25 0 -43 23 -43 59c0 59 53 104 73 104c5 0 9 -4 9 -9c0 -13 -43 -28 -43 -60
c0 -10 6 -9 16 -13c18 -7 26 -19 26 -39z" />
    <glyph glyph-name="guillemotleft" unicode="&#xab;" horiz-adv-x="361" 
d="M38 230c90 88 127 143 139 143c4 0 6 -3 6 -8c0 -16 -28 -60 -72 -140c47 -81 72 -126 72 -139c0 -5 -2 -8 -6 -8c-12 0 -50 55 -139 143v9zM187 230c90 88 126 143 138 143c4 0 6 -3 6 -8c0 -16 -28 -60 -72 -140c47 -81 72 -126 72 -139c0 -5 -2 -8 -6 -8
c-12 0 -49 55 -138 143v9z" />
    <glyph glyph-name="guilsinglleft" unicode="&#x2039;" horiz-adv-x="213" 
d="M38 230c90 88 127 143 139 143c4 0 6 -3 6 -8c0 -16 -28 -60 -72 -140c47 -81 72 -126 72 -139c0 -5 -2 -8 -6 -8c-12 0 -50 55 -139 143v9z" />
    <glyph glyph-name="guilsinglright" unicode="&#x203a;" horiz-adv-x="213" 
d="M180 221c-90 -88 -126 -143 -138 -143c-4 0 -6 2 -6 7c0 16 28 60 72 140c-47 80 -72 127 -72 140c0 5 2 8 6 8c12 0 49 -55 138 -143v-9z" />
    <glyph glyph-name="fi" unicode="&#xfb01;" horiz-adv-x="465" 
d="M157 84c0 -29 3 -48 9 -54c8 -9 31 -10 31 -21c0 -6 -6 -9 -19 -9h-111c-13 0 -20 3 -20 9c0 11 23 12 31 21c6 6 9 24 9 54v298h-62v35h62c-2 74 -6 123 -6 147c0 100 41 154 101 154c46 0 82 -39 82 -86c0 -37 -24 -63 -53 -63c-25 0 -39 18 -39 51v7c9 -2 16 -3 19 -3
c18 0 28 11 28 32c0 24 -17 42 -41 42c-34 0 -52 -26 -52 -80c0 -61 21 -125 30 -201h94v-35h-93v-298zM391 84c0 -29 4 -48 10 -54c8 -9 31 -10 31 -21c0 -6 -7 -9 -20 -9h-111c-13 0 -20 3 -20 9c0 11 23 12 31 21c6 6 10 24 10 54v235c0 25 -2 31 -15 34
c-14 4 -25 1 -25 11c0 8 12 12 30 22c46 25 68 43 73 43s6 -6 6 -17v-328zM344 526c-22 0 -37 15 -37 36c0 23 27 46 56 46c22 0 37 -14 37 -32c0 -27 -26 -50 -56 -50z" />
    <glyph glyph-name="fl" unicode="&#xfb02;" horiz-adv-x="465" 
d="M157 84c0 -29 3 -48 9 -54c8 -9 31 -10 31 -21c0 -6 -6 -9 -19 -9h-111c-13 0 -20 3 -20 9c0 11 23 12 31 21c6 6 9 24 9 54v298h-62v35h62c-2 74 -6 123 -6 147c0 100 41 154 101 154c46 0 82 -39 82 -86c0 -37 -24 -63 -53 -63c-25 0 -39 18 -39 51v7c9 -2 16 -3 19 -3
c18 0 28 11 28 32c0 24 -17 42 -41 42c-34 0 -52 -26 -52 -80c0 -61 21 -125 30 -201h94v-35h-93v-298zM322 608c0 25 -2 31 -15 34c-14 4 -25 1 -25 11c0 8 12 12 30 22c46 25 68 43 73 43s6 -6 6 -17v-617c0 -29 4 -48 10 -54c8 -9 31 -10 31 -21c0 -6 -7 -9 -20 -9h-111
c-13 0 -20 3 -20 9c0 11 23 12 31 21c6 6 10 24 10 54v524z" />
    <glyph glyph-name="endash" unicode="&#x2013;" 
d="M0 191v43h500v-43h-500z" />
    <glyph glyph-name="dagger" unicode="&#x2020;" 
d="M287 -35c0 -26 1 -40 10 -45c17 -11 38 -12 38 -23s-10 -13 -30 -13h-111c-20 0 -30 2 -30 13s21 12 38 23c9 6 11 20 11 45v449h-99c-20 0 -31 -2 -36 -9c-9 -13 -8 -30 -18 -30c-8 0 -10 9 -10 25v66c0 16 1 24 10 24s9 -17 18 -30c5 -7 16 -9 36 -9h99v182
c0 26 -1 40 -10 45c-18 11 -39 11 -39 22s11 13 31 13h110c20 0 30 -2 30 -13s-21 -11 -38 -22c-9 -6 -10 -20 -10 -45v-182h98c20 0 31 2 36 9c9 13 9 30 18 30c8 0 10 -8 10 -24v-66c0 -17 -2 -25 -10 -25c-9 0 -9 17 -18 30c-5 7 -16 9 -36 9h-98v-449z" />
    <glyph glyph-name="daggerdbl" unicode="&#x2021;" 
d="M287 493h98c20 0 31 2 36 9c9 13 9 29 18 29c8 0 10 -8 10 -24v-66c0 -17 -2 -24 -10 -24c-9 0 -9 17 -18 30c-5 7 -16 9 -36 9h-98v-314h98c20 0 31 2 36 9c9 13 9 30 18 30c8 0 10 -9 10 -25v-65c0 -17 -2 -25 -10 -25c-9 0 -9 17 -18 30c-5 7 -16 9 -36 9h-98v-140
c0 -26 1 -40 10 -45c17 -11 38 -12 38 -23s-10 -13 -30 -13h-111c-20 0 -30 2 -30 13s21 12 38 23c9 6 11 20 11 45v140h-99c-20 0 -31 -2 -36 -9c-9 -13 -8 -30 -18 -30c-8 0 -10 9 -10 25v65c0 16 1 25 10 25s9 -17 18 -30c5 -7 16 -9 36 -9h99v314h-99
c-20 0 -31 -2 -36 -9c-9 -13 -8 -30 -18 -30c-8 0 -10 8 -10 24v66c0 16 1 24 10 24s9 -16 18 -29c5 -7 16 -9 36 -9h99v140c0 26 -1 40 -10 45c-18 11 -39 11 -39 22s11 13 31 13h110c20 0 30 -2 30 -13s-21 -11 -38 -22c-9 -6 -10 -20 -10 -45v-140z" />
    <glyph glyph-name="periodcentered" unicode="&#xb7;" horiz-adv-x="231" 
d="M75 355c0 22 19 41 41 41s40 -18 40 -41s-18 -40 -40 -40s-41 18 -41 40z" />
    <glyph glyph-name="paragraph" unicode="&#xb6;" 
d="M463 722v-38h-61v-684h-46v684h-90v-684h-46v382c-114 5 -183 73 -183 170c0 100 74 170 192 170h234z" />
    <glyph glyph-name="bullet" unicode="&#x2022;" horiz-adv-x="590" 
d="M150 372c0 80 65 144 145 144c79 0 144 -64 144 -144c0 -79 -65 -145 -145 -145s-144 65 -144 145z" />
    <glyph glyph-name="quotesinglbase" unicode="&#x201a;" horiz-adv-x="231" 
d="M78 30c0 25 16 42 40 42c22 0 41 -22 41 -58c0 -58 -52 -104 -73 -104c-6 0 -9 4 -9 10c0 12 43 27 43 59c0 10 -6 9 -16 13c-18 7 -26 19 -26 38z" />
    <glyph glyph-name="quotedblbase" unicode="&#x201e;" horiz-adv-x="359" 
d="M78 30c0 25 16 42 40 42c22 0 41 -22 41 -58c0 -58 -52 -104 -73 -104c-6 0 -9 4 -9 10c0 12 43 27 43 59c0 10 -6 9 -16 13c-18 7 -26 19 -26 38zM203 30c0 25 17 42 41 42c22 0 41 -22 41 -58c0 -58 -52 -104 -73 -104c-6 0 -9 4 -9 10c0 12 43 27 43 59
c0 10 -6 9 -16 13c-18 7 -27 19 -27 38z" />
    <glyph glyph-name="quotedblright" unicode="&#x201d;" horiz-adv-x="359" 
d="M76 687c0 25 16 42 40 42c22 0 41 -22 41 -58c0 -59 -52 -104 -72 -104c-6 0 -10 4 -10 10c0 12 44 27 44 59c0 10 -6 9 -16 13c-18 7 -27 18 -27 38zM203 687c0 25 16 42 40 42c22 0 41 -22 41 -58c0 -59 -53 -104 -73 -104c-6 0 -9 4 -9 10c0 12 43 27 43 59
c0 10 -6 9 -16 13c-18 7 -26 18 -26 38z" />
    <glyph glyph-name="guillemotright" unicode="&#xbb;" horiz-adv-x="361" 
d="M180 221c-90 -88 -126 -143 -138 -143c-4 0 -6 2 -6 7c0 16 28 60 72 140c-47 80 -72 127 -72 140c0 5 2 8 6 8c12 0 49 -55 138 -143v-9zM328 221c-90 -88 -126 -143 -138 -143c-4 0 -6 2 -6 7c0 16 28 60 72 140c-47 80 -72 127 -72 140c0 5 2 8 6 8
c12 0 49 -55 138 -143v-9z" />
    <glyph glyph-name="ellipsis" unicode="&#x2026;" horiz-adv-x="1000" 
d="M167 69c22 0 36 -16 36 -40c0 -25 -14 -40 -36 -40s-37 15 -37 40c0 24 15 40 37 40zM500 69c22 0 36 -16 36 -40c0 -25 -14 -40 -36 -40s-37 15 -37 40c0 24 15 40 37 40zM834 69c22 0 36 -16 36 -40c0 -25 -14 -40 -36 -40s-37 15 -37 40c0 24 15 40 37 40z" />
    <glyph glyph-name="perthousand" unicode="&#x2030;" horiz-adv-x="937" 
d="M475 356c74 0 123 -66 123 -183s-49 -182 -123 -182s-122 65 -122 182s48 183 122 183zM166 704c-46 0 -60 -55 -60 -167s13 -166 60 -166c46 0 59 54 59 166s-13 167 -59 167zM166 720c74 0 122 -66 122 -183s-48 -182 -122 -182s-123 65 -123 182s49 183 123 183z
M475 340c-46 0 -59 -55 -59 -167s12 -166 59 -166c46 0 59 54 59 166s-13 167 -59 167zM451 720h51l-315 -729h-50zM772 356c74 0 123 -66 123 -183s-49 -182 -123 -182s-123 65 -123 182s49 183 123 183zM772 340c-46 0 -59 -55 -59 -167s12 -166 59 -166
c46 0 59 54 59 166s-13 167 -59 167z" />
    <glyph glyph-name="questiondown" unicode="&#xbf;" horiz-adv-x="424" 
d="M247 143c-5 18 -8 32 -8 41c0 29 24 51 60 51c46 0 79 -39 79 -99c0 -85 -64 -152 -155 -152c-100 0 -179 80 -179 194c0 49 13 90 40 123c33 41 69 70 98 98c42 41 65 69 65 146c0 18 0 27 12 27c10 0 14 -12 14 -38c0 -55 -11 -102 -37 -145c-22 -37 -49 -63 -67 -90
c-28 -40 -39 -78 -39 -127c0 -105 43 -165 111 -165c52 0 89 38 89 90c0 33 -23 58 -49 58c-11 0 -22 -4 -34 -12zM260 729c22 0 37 -16 37 -40c0 -25 -15 -40 -37 -40s-36 15 -36 40c0 24 14 40 36 40z" />
    <glyph glyph-name="grave" unicode="`" 
d="M193 631l118 -150h-24l-133 115c-15 13 -23 22 -23 34c0 14 12 25 27 25c12 0 22 -8 35 -24z" />
    <glyph glyph-name="acute" unicode="&#xb4;" 
d="M346 596l-133 -115h-24l118 150c13 16 23 24 35 24c15 0 27 -11 27 -25c0 -12 -8 -21 -23 -34z" />
    <glyph glyph-name="circumflex" unicode="&#x2c6;" 
d="M227 651h46l109 -170h-23l-109 113l-109 -113h-23z" />
    <glyph glyph-name="tilde" unicode="&#x2dc;" 
d="M368 612h21c-12 -59 -42 -89 -85 -89c-11 0 -24 2 -38 6l-57 18c-14 4 -25 6 -29 6c-27 0 -40 -12 -48 -44h-21c10 55 40 90 83 90c12 0 26 -3 44 -8l57 -17c10 -3 19 -5 27 -5c25 0 39 14 46 43z" />
    <glyph glyph-name="macron" unicode="&#xaf;" 
d="M125 583h250v-53h-250v53z" />
    <glyph glyph-name="breve" unicode="&#x2d8;" 
d="M112 630h22c11 -54 47 -76 116 -76c67 0 105 20 115 76h23c-13 -84 -61 -128 -138 -128s-125 44 -138 128z" />
    <glyph glyph-name="dotaccent" unicode="&#x2d9;" 
d="M250 603c25 0 46 -21 46 -46c0 -26 -20 -46 -46 -46c-25 0 -45 21 -45 46c0 24 21 46 45 46z" />
    <glyph glyph-name="dieresis" unicode="&#xa8;" 
d="M165 600c23 0 43 -20 43 -43c0 -25 -18 -43 -43 -43s-43 18 -43 43c0 23 20 43 43 43zM335 600c23 0 43 -20 43 -43c0 -25 -19 -43 -43 -43c-25 0 -43 18 -43 42s19 44 43 44z" />
    <glyph glyph-name="ring" unicode="&#x2da;" 
d="M250 700c64 0 114 -50 114 -114s-50 -114 -114 -114s-114 50 -114 114s50 114 114 114zM250 660c-42 0 -74 -33 -74 -74c0 -42 32 -74 74 -74s75 32 75 74c0 41 -34 74 -75 74z" />
    <glyph glyph-name="cedilla" unicode="&#xb8;" 
d="M213 0h27v-59c10 2 19 2 27 2c54 0 86 -31 86 -79c0 -46 -40 -79 -102 -79c-35 0 -80 11 -135 33l13 32c49 -24 88 -33 108 -33c41 0 62 16 62 49c0 28 -21 45 -58 45c-8 0 -18 -1 -28 -3v92z" />
    <glyph glyph-name="hungarumlaut" unicode="&#x2dd;" 
d="M394 601l-91 -120h-21l69 144c10 21 20 31 33 31c14 0 26 -11 26 -24c0 -7 -6 -18 -16 -31zM274 601l-81 -120h-21l57 141c9 23 18 34 33 34c14 0 25 -11 25 -25c0 -6 -4 -16 -13 -30z" />
    <glyph glyph-name="ogonek" unicode="&#x2db;" 
d="M282 15h21c-61 -45 -91 -88 -91 -135c0 -36 21 -58 52 -58c23 0 41 13 61 39l12 -8c-21 -44 -57 -68 -99 -68c-44 0 -75 31 -75 74c0 51 40 107 119 156z" />
    <glyph glyph-name="caron" unicode="&#x2c7;" 
d="M118 651h23l109 -113l109 113h23l-109 -170h-46z" />
    <glyph glyph-name="emdash" unicode="&#x2014;" horiz-adv-x="1000" 
d="M0 191v43h1000v-43h-1000z" />
    <glyph glyph-name="AE" unicode="&#xc6;" horiz-adv-x="887" 
d="M399 713h320c49 0 43 19 50 19c4 0 7 -3 10 -10l67 -131c2 -3 2 -6 2 -9c0 -5 -3 -9 -6 -9c-15 0 -24 22 -52 52c-53 56 -96 66 -189 66c-44 0 -54 -3 -54 -40v-182c0 -21 5 -30 23 -30h70c31 0 47 3 53 13c8 14 8 30 17 30c6 0 7 -4 11 -12l57 -109c1 -3 2 -6 2 -8
c0 -4 -3 -7 -7 -7c-9 0 -19 15 -41 33c-40 33 -82 38 -140 38c-44 0 -45 -14 -45 -62v-284c0 -37 6 -46 51 -46h48c76 0 133 16 183 58c37 31 48 65 63 65c5 0 9 -4 9 -9c0 -4 -1 -9 -4 -14l-57 -117c-7 -14 -11 -22 -19 -22c-7 0 -9 14 -48 14h-330c-21 0 -30 2 -30 13
s20 11 38 22c8 5 11 19 11 45v127c0 25 0 35 -21 35h-210c-24 0 -40 -2 -49 -17l-72 -117c-15 -25 -22 -44 -22 -53c0 -19 8 -24 25 -31c13 -5 21 -7 21 -15c0 -7 -9 -9 -27 -9h-113c-16 0 -22 2 -22 10c0 9 8 11 21 16c35 14 55 36 78 72l344 535c7 10 10 21 10 29
c0 15 -8 18 -25 22c-19 5 -31 6 -31 16c0 11 10 13 30 13zM227 294c-6 -9 -9 -15 -9 -17c0 -5 6 -11 12 -11h204c25 0 27 9 27 35v360z" />
    <glyph glyph-name="ordfeminine" unicode="&#xaa;" horiz-adv-x="290" 
d="M198 450c-18 -23 -43 -35 -76 -35c-58 0 -101 40 -101 95c0 52 50 101 104 101c22 0 42 -8 57 -23c-4 76 -17 109 -60 109c-21 0 -38 -7 -50 -23c-9 -11 -9 -26 -16 -26c-4 0 -6 3 -6 8c0 29 36 65 91 65c31 0 55 -11 72 -33c12 -16 15 -42 19 -79l13 -129
c3 -26 9 -37 24 -37c22 0 18 23 27 23c3 0 5 -2 5 -7c0 -27 -17 -44 -47 -44c-29 0 -45 10 -56 35zM142 434c34 0 51 20 51 59c0 69 -20 103 -59 103c-33 0 -57 -28 -57 -76c0 -53 28 -86 65 -86z" />
    <glyph glyph-name="Lslash" unicode="&#x141;" horiz-adv-x="498" 
d="M107 320l-58 -41c-4 -2 -6 -4 -8 -4c-3 0 -6 2 -8 5l-7 11c-2 3 -4 5 -4 7c0 3 2 7 7 10l78 54v271c0 26 -1 40 -10 45c-18 11 -38 11 -38 22s10 13 30 13h123c20 0 30 -2 30 -13s-21 -11 -38 -22c-9 -6 -11 -20 -11 -45v-234l107 76c3 2 6 3 8 3s6 -2 8 -4l7 -11
c2 -3 4 -5 4 -8c0 -2 -2 -6 -7 -9l-127 -88v-287c0 -38 7 -46 56 -46c67 0 120 11 161 37c59 37 74 86 91 86c5 0 9 -4 9 -9c0 -4 -1 -9 -4 -14l-57 -117c-7 -14 -11 -22 -19 -22c-7 0 -9 14 -48 14h-293c-21 0 -30 2 -30 13s20 11 38 22c8 5 10 19 10 45v240z" />
    <glyph glyph-name="Oslash" unicode="&#xd8;" horiz-adv-x="611" 
d="M462 647l65 109l27 -16l-70 -118c65 -87 96 -185 96 -295c0 -206 -118 -343 -275 -343c-63 0 -117 21 -167 64l-54 -89l-26 14l58 99c-55 61 -86 149 -86 256c0 103 29 197 84 276c57 83 124 125 191 125c55 0 108 -27 157 -82zM154 133l277 476c-33 62 -79 95 -126 95
c-103 0 -175 -132 -175 -382c0 -71 7 -134 24 -189zM446 572l-274 -475c24 -55 73 -88 133 -88c116 0 175 108 175 321c0 96 -10 176 -34 242z" />
    <glyph glyph-name="OE" unicode="&#x152;" horiz-adv-x="892" 
d="M469 713h256c49 0 42 19 49 19c4 0 8 -3 11 -10l66 -131c2 -3 3 -6 3 -9c0 -5 -4 -9 -7 -9c-15 0 -23 22 -51 52c-53 56 -97 66 -190 66c-44 0 -53 -3 -53 -40v-182c0 -21 5 -30 23 -30h70c31 0 47 3 53 13c8 14 8 30 17 30c6 0 7 -4 11 -12l57 -109c1 -3 2 -6 2 -8
c0 -4 -3 -7 -7 -7c-9 0 -19 15 -41 33c-40 33 -82 38 -140 38c-44 0 -45 -14 -45 -62v-284c0 -37 6 -46 51 -46h48c76 0 132 16 182 58c37 31 49 65 64 65c5 0 9 -4 9 -9c0 -4 -1 -9 -4 -14l-57 -117c-7 -14 -11 -22 -19 -22c-7 0 -9 14 -48 14h-330c-26 0 -59 -5 -100 -5
c-45 0 -87 9 -124 26c-119 53 -194 174 -194 324c0 120 46 223 139 305c50 44 114 68 186 68c47 0 84 -5 113 -5zM467 570c0 83 -15 125 -91 125c-60 0 -108 -23 -154 -73c-65 -71 -98 -161 -98 -269c0 -109 26 -194 86 -262c42 -48 92 -72 149 -72c82 0 108 42 108 140v411
z" />
    <glyph glyph-name="ordmasculine" unicode="&#xba;" horiz-adv-x="318" 
d="M146 721c30 0 58 -11 87 -33c42 -31 66 -80 66 -135c0 -83 -56 -140 -132 -140c-78 0 -143 65 -143 157c0 85 60 151 122 151zM242 514c0 51 -15 111 -39 152c-14 26 -38 41 -60 41c-39 0 -61 -34 -61 -98c0 -110 43 -180 95 -180c41 0 65 30 65 85z" />
    <glyph glyph-name="ae" unicode="&#xe6;" horiz-adv-x="569" 
d="M553 247l-238 -48c12 -112 52 -167 125 -167c44 0 73 20 88 60c5 13 5 23 13 23c5 0 8 -5 8 -14c0 -59 -56 -112 -137 -112c-54 0 -105 28 -137 77c-12 -45 -54 -74 -111 -74c-80 0 -136 56 -136 135c0 75 67 145 138 145c30 0 56 -12 76 -34c-5 109 -22 157 -80 157
c-27 0 -50 -11 -66 -33c-12 -16 -12 -37 -22 -37c-5 0 -8 4 -8 11c0 41 49 92 122 92c48 0 81 -20 104 -60c31 40 65 60 103 60c71 0 136 -65 158 -181zM189 19c43 0 68 29 68 83c0 99 -27 148 -78 148c-45 0 -76 -40 -76 -108c0 -76 38 -123 86 -123zM312 219l103 22
c38 8 48 14 48 41c0 65 -40 124 -82 124s-72 -50 -72 -142c0 -12 1 -27 3 -45z" />
    <glyph glyph-name="dotlessi" unicode="&#x131;" horiz-adv-x="222" 
d="M148 84c0 -29 4 -48 10 -54c8 -9 31 -10 31 -21c0 -6 -7 -9 -20 -9h-111c-13 0 -20 3 -20 9c0 11 23 12 31 21c6 6 10 24 10 54v235c0 25 -2 31 -15 34c-14 4 -25 1 -25 11c0 8 12 12 30 22c46 25 68 43 73 43s6 -6 6 -17v-328z" />
    <glyph glyph-name="lslash" unicode="&#x142;" horiz-adv-x="266" 
d="M171 403l60 38c4 3 7 4 8 4c3 0 6 -1 7 -3l6 -10c2 -2 2 -4 2 -7c0 -2 -2 -6 -7 -9l-76 -51v-281c0 -29 4 -48 10 -54c8 -9 31 -10 31 -21c0 -6 -7 -9 -20 -9h-111c-13 0 -20 3 -20 9c0 11 23 12 31 21c6 6 10 24 10 54v249l-60 -38c-4 -3 -7 -4 -8 -4c-3 0 -5 1 -6 3
l-7 9c-2 2 -2 5 -2 7c0 3 2 6 7 9l76 52v237c0 25 -2 31 -15 34c-14 4 -25 1 -25 11c0 8 12 12 30 22c46 25 68 43 73 43s6 -6 6 -17v-298z" />
    <glyph glyph-name="oslash" unicode="&#xf8;" horiz-adv-x="424" 
d="M143 93l126 259c-22 38 -49 57 -79 57c-51 0 -81 -48 -81 -138c0 -69 13 -130 34 -178zM284 322l-127 -259c22 -34 48 -52 79 -52c55 0 86 43 86 122c0 47 -11 115 -38 189zM112 29c-53 46 -80 108 -80 184c0 121 81 216 163 216c35 0 66 -10 95 -32l35 69l24 -11
l-36 -75c55 -49 85 -115 85 -192c0 -119 -74 -199 -175 -199c-33 0 -64 8 -90 25l-31 -67l-26 12z" />
    <glyph glyph-name="oe" unicode="&#x153;" horiz-adv-x="644" 
d="M347 345c31 54 74 83 119 83c74 0 139 -65 161 -181l-238 -48c12 -112 52 -167 125 -167c44 0 74 20 89 60c5 13 4 23 12 23c5 0 8 -5 8 -14c0 -59 -56 -112 -137 -112c-56 0 -99 19 -135 59c-32 -39 -75 -59 -128 -59c-105 0 -191 93 -191 224c0 121 79 216 165 216
c50 0 103 -29 150 -84zM236 11c55 0 86 43 86 122c0 73 -20 158 -51 217c-19 36 -52 59 -80 59c-52 0 -82 -49 -82 -141c0 -156 59 -257 127 -257zM386 219l103 22c38 8 48 14 48 41c0 65 -40 124 -82 124s-72 -50 -72 -142c0 -12 1 -27 3 -45z" />
    <glyph glyph-name="germandbls" unicode="&#xdf;" horiz-adv-x="433" 
d="M144 -35c0 -91 -24 -136 -78 -136c-39 0 -62 24 -62 73c0 12 4 18 9 18c9 0 8 -7 10 -19c3 -18 10 -26 24 -26c19 0 28 19 28 58v449h-67v35h67v89c0 140 39 209 131 209c81 0 143 -72 143 -170c0 -73 -38 -125 -107 -144c99 -26 158 -109 158 -210
c0 -122 -70 -203 -161 -203c-43 0 -74 21 -74 33c0 4 3 7 8 7c6 0 20 -10 48 -10c62 0 103 65 103 186s-41 181 -126 181h-6v27h9c55 0 79 46 79 140s-26 143 -72 143c-43 0 -64 -49 -64 -148v-582z" />
    <glyph glyph-name="Aacute" unicode="&#xc1;" horiz-adv-x="549" 
d="M8 0c-16 0 -23 2 -23 10c0 9 8 11 21 16c42 17 48 33 60 72l190 615h50l196 -641c16 -52 61 -48 61 -62c0 -8 -8 -10 -27 -10h-145c-15 0 -21 1 -21 9c0 17 47 12 47 42c0 6 -2 17 -6 32l-28 95c-8 25 -17 35 -41 35h-187c-22 0 -28 -6 -35 -29l-22 -76
c-4 -14 -6 -28 -6 -42c0 -16 9 -31 22 -37c18 -8 34 -9 34 -20c0 -7 -9 -9 -27 -9h-113zM144 264c-2 -5 -2 -10 -2 -14c0 -10 6 -14 18 -14h176c13 0 23 8 23 17c0 5 -1 11 -3 18l-102 335h-9zM371 898l-133 -115h-24l118 150c13 16 23 24 35 24c15 0 27 -11 27 -25
c0 -12 -8 -21 -23 -34z" />
    <glyph glyph-name="Acircumflex" unicode="&#xc2;" horiz-adv-x="549" 
d="M8 0c-16 0 -23 2 -23 10c0 9 8 11 21 16c42 17 48 33 60 72l190 615h50l196 -641c16 -52 61 -48 61 -62c0 -8 -8 -10 -27 -10h-145c-15 0 -21 1 -21 9c0 17 47 12 47 42c0 6 -2 17 -6 32l-28 95c-8 25 -17 35 -41 35h-187c-22 0 -28 -6 -35 -29l-22 -76
c-4 -14 -6 -28 -6 -42c0 -16 9 -31 22 -37c18 -8 34 -9 34 -20c0 -7 -9 -9 -27 -9h-113zM144 264c-2 -5 -2 -10 -2 -14c0 -10 6 -14 18 -14h176c13 0 23 8 23 17c0 5 -1 11 -3 18l-102 335h-9zM252 953h46l109 -170h-23l-109 113l-109 -113h-23z" />
    <glyph glyph-name="Adieresis" unicode="&#xc4;" horiz-adv-x="549" 
d="M8 0c-16 0 -23 2 -23 10c0 9 8 11 21 16c42 17 48 33 60 72l190 615h50l196 -641c16 -52 61 -48 61 -62c0 -8 -8 -10 -27 -10h-145c-15 0 -21 1 -21 9c0 17 47 12 47 42c0 6 -2 17 -6 32l-28 95c-8 25 -17 35 -41 35h-187c-22 0 -28 -6 -35 -29l-22 -76
c-4 -14 -6 -28 -6 -42c0 -16 9 -31 22 -37c18 -8 34 -9 34 -20c0 -7 -9 -9 -27 -9h-113zM144 264c-2 -5 -2 -10 -2 -14c0 -10 6 -14 18 -14h176c13 0 23 8 23 17c0 5 -1 11 -3 18l-102 335h-9zM190 902c23 0 43 -20 43 -43c0 -25 -18 -43 -43 -43s-43 18 -43 43
c0 23 20 43 43 43zM360 902c23 0 43 -20 43 -43c0 -25 -19 -43 -43 -43c-25 0 -43 18 -43 42s19 44 43 44z" />
    <glyph glyph-name="Agrave" unicode="&#xc0;" horiz-adv-x="549" 
d="M8 0c-16 0 -23 2 -23 10c0 9 8 11 21 16c42 17 48 33 60 72l190 615h50l196 -641c16 -52 61 -48 61 -62c0 -8 -8 -10 -27 -10h-145c-15 0 -21 1 -21 9c0 17 47 12 47 42c0 6 -2 17 -6 32l-28 95c-8 25 -17 35 -41 35h-187c-22 0 -28 -6 -35 -29l-22 -76
c-4 -14 -6 -28 -6 -42c0 -16 9 -31 22 -37c18 -8 34 -9 34 -20c0 -7 -9 -9 -27 -9h-113zM144 264c-2 -5 -2 -10 -2 -14c0 -10 6 -14 18 -14h176c13 0 23 8 23 17c0 5 -1 11 -3 18l-102 335h-9zM218 933l118 -150h-24l-133 115c-15 13 -23 22 -23 34c0 14 12 25 27 25
c12 0 22 -8 35 -24z" />
    <glyph glyph-name="Aring" unicode="&#xc5;" horiz-adv-x="549" 
d="M8 0c-16 0 -23 2 -23 10c0 9 8 11 21 16c42 17 48 33 60 72l190 615h50l196 -641c16 -52 61 -48 61 -62c0 -8 -8 -10 -27 -10h-145c-15 0 -21 1 -21 9c0 17 47 12 47 42c0 6 -2 17 -6 32l-28 95c-8 25 -17 35 -41 35h-187c-22 0 -28 -6 -35 -29l-22 -76
c-4 -14 -6 -28 -6 -42c0 -16 9 -31 22 -37c18 -8 34 -9 34 -20c0 -7 -9 -9 -27 -9h-113zM144 264c-2 -5 -2 -10 -2 -14c0 -10 6 -14 18 -14h176c13 0 23 8 23 17c0 5 -1 11 -3 18l-102 335h-9zM280 973c64 0 114 -50 114 -114s-50 -114 -114 -114s-114 50 -114 114
s50 114 114 114zM281 934c-42 0 -75 -34 -75 -75c0 -42 33 -74 75 -74s74 32 74 74c0 41 -33 75 -74 75z" />
    <glyph glyph-name="Atilde" unicode="&#xc3;" horiz-adv-x="549" 
d="M8 0c-16 0 -23 2 -23 10c0 9 8 11 21 16c42 17 48 33 60 72l190 615h50l196 -641c16 -52 61 -48 61 -62c0 -8 -8 -10 -27 -10h-145c-15 0 -21 1 -21 9c0 17 47 12 47 42c0 6 -2 17 -6 32l-28 95c-8 25 -17 35 -41 35h-187c-22 0 -28 -6 -35 -29l-22 -76
c-4 -14 -6 -28 -6 -42c0 -16 9 -31 22 -37c18 -8 34 -9 34 -20c0 -7 -9 -9 -27 -9h-113zM144 264c-2 -5 -2 -10 -2 -14c0 -10 6 -14 18 -14h176c13 0 23 8 23 17c0 5 -1 11 -3 18l-102 335h-9zM393 914h21c-12 -59 -42 -89 -85 -89c-11 0 -24 2 -38 6l-57 18
c-14 4 -25 6 -29 6c-27 0 -40 -12 -48 -44h-21c10 55 40 90 83 90c12 0 26 -3 44 -8l57 -17c10 -3 19 -5 27 -5c25 0 39 14 46 43z" />
    <glyph glyph-name="Ccedilla" unicode="&#xc7;" horiz-adv-x="515" 
d="M430 711l43 -129c2 -6 3 -10 3 -12c0 -7 -4 -11 -8 -11c-12 0 -18 15 -32 37c-46 71 -83 110 -135 110c-96 0 -169 -133 -169 -372c0 -202 67 -307 189 -307c70 0 118 35 142 102c13 38 7 63 24 63c8 0 11 -6 11 -19c0 -108 -81 -189 -196 -189c-70 0 -130 26 -175 74
c-62 67 -95 159 -95 271c0 124 42 239 119 326c43 49 96 75 147 75c45 0 77 -18 90 -18c14 0 18 19 28 19c7 0 10 -8 14 -20zM251 0h27v-59c10 2 19 2 27 2c54 0 86 -31 86 -79c0 -46 -40 -79 -102 -79c-35 0 -80 11 -135 33l13 32c49 -24 88 -33 108 -33c41 0 62 16 62 49
c0 28 -21 45 -58 45c-8 0 -18 -1 -28 -3v92z" />
    <glyph glyph-name="Eacute" unicode="&#xc9;" horiz-adv-x="509" 
d="M341 713c49 0 43 19 50 19c4 0 8 -3 11 -10l66 -131c2 -3 3 -6 3 -9c0 -5 -4 -9 -7 -9c-15 0 -23 22 -51 52c-53 56 -97 66 -190 66c-44 0 -53 -3 -53 -40v-182c0 -21 5 -30 23 -30h69c31 0 48 3 54 13c8 14 7 30 16 30c6 0 8 -4 12 -12l57 -109c1 -3 2 -6 2 -8
c0 -4 -3 -7 -7 -7c-9 0 -19 15 -41 33c-40 33 -83 38 -141 38c-44 0 -44 -14 -44 -62v-284c0 -37 6 -46 51 -46h48c76 0 132 16 182 58c37 31 49 65 64 65c5 0 9 -4 9 -9c0 -4 -1 -9 -4 -14l-57 -117c-7 -14 -11 -22 -19 -22c-7 0 -9 14 -48 14h-330c-21 0 -30 2 -30 13
s20 11 38 22c8 5 10 19 10 45v553c0 26 -1 40 -10 45c-18 11 -38 11 -38 22s10 13 30 13h275zM351 898l-133 -115h-24l118 150c13 16 23 24 35 24c15 0 27 -11 27 -25c0 -12 -8 -21 -23 -34z" />
    <glyph glyph-name="Ecircumflex" unicode="&#xca;" horiz-adv-x="509" 
d="M341 713c49 0 43 19 50 19c4 0 8 -3 11 -10l66 -131c2 -3 3 -6 3 -9c0 -5 -4 -9 -7 -9c-15 0 -23 22 -51 52c-53 56 -97 66 -190 66c-44 0 -53 -3 -53 -40v-182c0 -21 5 -30 23 -30h69c31 0 48 3 54 13c8 14 7 30 16 30c6 0 8 -4 12 -12l57 -109c1 -3 2 -6 2 -8
c0 -4 -3 -7 -7 -7c-9 0 -19 15 -41 33c-40 33 -83 38 -141 38c-44 0 -44 -14 -44 -62v-284c0 -37 6 -46 51 -46h48c76 0 132 16 182 58c37 31 49 65 64 65c5 0 9 -4 9 -9c0 -4 -1 -9 -4 -14l-57 -117c-7 -14 -11 -22 -19 -22c-7 0 -9 14 -48 14h-330c-21 0 -30 2 -30 13
s20 11 38 22c8 5 10 19 10 45v553c0 26 -1 40 -10 45c-18 11 -38 11 -38 22s10 13 30 13h275zM232 953h46l109 -170h-23l-109 113l-109 -113h-23z" />
    <glyph glyph-name="Edieresis" unicode="&#xcb;" horiz-adv-x="509" 
d="M341 713c49 0 43 19 50 19c4 0 8 -3 11 -10l66 -131c2 -3 3 -6 3 -9c0 -5 -4 -9 -7 -9c-15 0 -23 22 -51 52c-53 56 -97 66 -190 66c-44 0 -53 -3 -53 -40v-182c0 -21 5 -30 23 -30h69c31 0 48 3 54 13c8 14 7 30 16 30c6 0 8 -4 12 -12l57 -109c1 -3 2 -6 2 -8
c0 -4 -3 -7 -7 -7c-9 0 -19 15 -41 33c-40 33 -83 38 -141 38c-44 0 -44 -14 -44 -62v-284c0 -37 6 -46 51 -46h48c76 0 132 16 182 58c37 31 49 65 64 65c5 0 9 -4 9 -9c0 -4 -1 -9 -4 -14l-57 -117c-7 -14 -11 -22 -19 -22c-7 0 -9 14 -48 14h-330c-21 0 -30 2 -30 13
s20 11 38 22c8 5 10 19 10 45v553c0 26 -1 40 -10 45c-18 11 -38 11 -38 22s10 13 30 13h275zM170 902c23 0 43 -20 43 -43c0 -25 -18 -43 -43 -43s-43 18 -43 43c0 23 20 43 43 43zM340 902c23 0 43 -20 43 -43c0 -25 -19 -43 -43 -43c-25 0 -43 18 -43 42s19 44 43 44z
" />
    <glyph glyph-name="Egrave" unicode="&#xc8;" horiz-adv-x="509" 
d="M341 713c49 0 43 19 50 19c4 0 8 -3 11 -10l66 -131c2 -3 3 -6 3 -9c0 -5 -4 -9 -7 -9c-15 0 -23 22 -51 52c-53 56 -97 66 -190 66c-44 0 -53 -3 -53 -40v-182c0 -21 5 -30 23 -30h69c31 0 48 3 54 13c8 14 7 30 16 30c6 0 8 -4 12 -12l57 -109c1 -3 2 -6 2 -8
c0 -4 -3 -7 -7 -7c-9 0 -19 15 -41 33c-40 33 -83 38 -141 38c-44 0 -44 -14 -44 -62v-284c0 -37 6 -46 51 -46h48c76 0 132 16 182 58c37 31 49 65 64 65c5 0 9 -4 9 -9c0 -4 -1 -9 -4 -14l-57 -117c-7 -14 -11 -22 -19 -22c-7 0 -9 14 -48 14h-330c-21 0 -30 2 -30 13
s20 11 38 22c8 5 10 19 10 45v553c0 26 -1 40 -10 45c-18 11 -38 11 -38 22s10 13 30 13h275zM198 933l118 -150h-24l-133 115c-15 13 -23 22 -23 34c0 14 12 25 27 25c12 0 22 -8 35 -24z" />
    <glyph glyph-name="Eth" unicode="&#xd0;" horiz-adv-x="597" 
d="M91 0c-22 0 -33 2 -33 13s21 11 39 22c8 5 10 19 10 45v290h-71c-9 0 -13 2 -13 9v14c0 9 4 12 13 12h71v229c0 23 -3 36 -6 40c-10 14 -36 15 -36 18c0 1 -7 4 -7 10c0 14 30 14 95 14c83 0 152 -7 216 -39c121 -61 196 -186 196 -331c0 -140 -67 -258 -170 -312
c-65 -34 -141 -34 -236 -34h-68zM193 98c0 -59 3 -74 71 -74c127 0 203 106 203 305c0 224 -111 362 -232 362c-35 0 -42 -10 -42 -45v-241h123c9 0 12 -3 12 -12v-14c0 -7 -3 -9 -12 -9h-123v-272z" />
    <glyph glyph-name="Euro" unicode="&#x20ac;" horiz-adv-x="463" 
d="M355 273h-205c9 -158 56 -240 142 -240c55 0 90 34 109 99c11 37 5 44 20 44c7 0 11 -6 11 -19c0 -92 -69 -166 -155 -166c-56 0 -103 26 -139 73c-40 54 -65 124 -72 209h-48c-7 0 -13 2 -13 6v1l2 10c2 7 4 11 13 11h44c-1 9 -1 18 -1 28c0 23 1 46 4 68h-43
c-7 0 -14 2 -14 6v1l3 10c2 8 4 11 13 11h44c13 84 43 160 87 222c34 48 76 73 117 73c35 0 61 -18 71 -18c11 0 14 19 22 19c6 0 8 -8 11 -19l34 -126c2 -6 2 -10 2 -12c0 -7 -6 -11 -9 -11c-9 0 -14 15 -25 36c-36 70 -65 108 -105 108c-65 0 -112 -97 -124 -272h229
c7 0 13 -2 13 -7v-1l-2 -10c-2 -6 -4 -10 -13 -10h-228c-1 -20 -2 -41 -2 -64c0 -11 0 -22 1 -32h208c8 0 14 -3 14 -7v-1l-3 -10c-1 -6 -4 -10 -13 -10z" />
    <glyph glyph-name="Iacute" unicode="&#xcd;" horiz-adv-x="264" 
d="M175 80c0 -25 1 -40 10 -45c17 -11 38 -11 38 -22s-9 -13 -30 -13h-122c-21 0 -31 2 -31 13s21 11 39 22c8 5 10 19 10 45v553c0 26 -2 40 -11 45c-18 11 -38 11 -38 22s11 13 31 13h122c20 0 30 -2 30 -13s-21 -11 -38 -22c-9 -6 -10 -20 -10 -45v-553zM228 898
l-133 -115h-24l118 150c13 16 23 24 35 24c15 0 27 -11 27 -25c0 -12 -8 -21 -23 -34z" />
    <glyph glyph-name="Icircumflex" unicode="&#xce;" horiz-adv-x="264" 
d="M175 80c0 -25 1 -40 10 -45c17 -11 38 -11 38 -22s-9 -13 -30 -13h-122c-21 0 -31 2 -31 13s21 11 39 22c8 5 10 19 10 45v553c0 26 -2 40 -11 45c-18 11 -38 11 -38 22s11 13 31 13h122c20 0 30 -2 30 -13s-21 -11 -38 -22c-9 -6 -10 -20 -10 -45v-553zM109 953h46
l109 -170h-23l-109 113l-109 -113h-23z" />
    <glyph glyph-name="Idieresis" unicode="&#xcf;" horiz-adv-x="264" 
d="M175 80c0 -25 1 -40 10 -45c17 -11 38 -11 38 -22s-9 -13 -30 -13h-122c-21 0 -31 2 -31 13s21 11 39 22c8 5 10 19 10 45v553c0 26 -2 40 -11 45c-18 11 -38 11 -38 22s11 13 31 13h122c20 0 30 -2 30 -13s-21 -11 -38 -22c-9 -6 -10 -20 -10 -45v-553zM47 902
c23 0 43 -20 43 -43c0 -25 -18 -43 -43 -43s-43 18 -43 43c0 23 20 43 43 43zM217 902c23 0 43 -20 43 -43c0 -25 -19 -43 -43 -43c-25 0 -43 18 -43 42s19 44 43 44z" />
    <glyph glyph-name="Igrave" unicode="&#xcc;" horiz-adv-x="264" 
d="M175 80c0 -25 1 -40 10 -45c17 -11 38 -11 38 -22s-9 -13 -30 -13h-122c-21 0 -31 2 -31 13s21 11 39 22c8 5 10 19 10 45v553c0 26 -2 40 -11 45c-18 11 -38 11 -38 22s11 13 31 13h122c20 0 30 -2 30 -13s-21 -11 -38 -22c-9 -6 -10 -20 -10 -45v-553zM75 933l118 -150
h-24l-133 115c-15 13 -23 22 -23 34c0 14 12 25 27 25c12 0 22 -8 35 -24z" />
    <glyph glyph-name="Ntilde" unicode="&#xd1;" horiz-adv-x="556" 
d="M453 633c0 24 -6 39 -16 45c-20 12 -43 11 -43 22c0 10 12 13 36 13h67c29 0 44 -2 44 -13s-28 -11 -46 -22c-11 -7 -17 -22 -17 -45v-614c0 -16 -2 -23 -10 -23c-16 0 -5 35 -36 87l-323 551v-542c0 -31 6 -49 18 -57c17 -11 46 -11 46 -22s-13 -13 -40 -13h-71
c-24 0 -36 2 -36 13c0 10 25 11 41 23c14 10 17 27 17 55v542c0 26 -3 39 -11 44c-18 11 -38 12 -38 23s11 13 31 13h93l294 -507v427zM405 914h21c-12 -59 -42 -89 -85 -89c-11 0 -24 2 -38 6l-57 18c-14 4 -25 6 -29 6c-27 0 -40 -12 -48 -44h-21c10 55 40 90 83 90
c12 0 26 -3 44 -8l57 -17c10 -3 19 -5 27 -5c25 0 39 14 46 43z" />
    <glyph glyph-name="Oacute" unicode="&#xd3;" horiz-adv-x="611" 
d="M305 729c51 0 103 -24 146 -70c86 -93 129 -203 129 -332c0 -206 -118 -343 -275 -343s-275 137 -275 343c0 103 29 198 84 277c57 83 124 125 191 125zM480 325c0 247 -73 379 -175 379s-175 -132 -175 -379c0 -210 60 -316 175 -316s175 106 175 316zM402 898
l-133 -115h-24l118 150c13 16 23 24 35 24c15 0 27 -11 27 -25c0 -12 -8 -21 -23 -34z" />
    <glyph glyph-name="Ocircumflex" unicode="&#xd4;" horiz-adv-x="611" 
d="M305 729c51 0 103 -24 146 -70c86 -93 129 -203 129 -332c0 -206 -118 -343 -275 -343s-275 137 -275 343c0 103 29 198 84 277c57 83 124 125 191 125zM480 325c0 247 -73 379 -175 379s-175 -132 -175 -379c0 -210 60 -316 175 -316s175 106 175 316zM283 953h46
l109 -170h-23l-109 113l-109 -113h-23z" />
    <glyph glyph-name="Odieresis" unicode="&#xd6;" horiz-adv-x="611" 
d="M305 729c51 0 103 -24 146 -70c86 -93 129 -203 129 -332c0 -206 -118 -343 -275 -343s-275 137 -275 343c0 103 29 198 84 277c57 83 124 125 191 125zM480 325c0 247 -73 379 -175 379s-175 -132 -175 -379c0 -210 60 -316 175 -316s175 106 175 316zM221 902
c23 0 43 -20 43 -43c0 -25 -18 -43 -43 -43s-43 18 -43 43c0 23 20 43 43 43zM391 902c23 0 43 -20 43 -43c0 -25 -19 -43 -43 -43c-25 0 -43 18 -43 42s19 44 43 44z" />
    <glyph glyph-name="Ograve" unicode="&#xd2;" horiz-adv-x="611" 
d="M305 729c51 0 103 -24 146 -70c86 -93 129 -203 129 -332c0 -206 -118 -343 -275 -343s-275 137 -275 343c0 103 29 198 84 277c57 83 124 125 191 125zM480 325c0 247 -73 379 -175 379s-175 -132 -175 -379c0 -210 60 -316 175 -316s175 106 175 316zM249 933l118 -150
h-24l-133 115c-15 13 -23 22 -23 34c0 14 12 25 27 25c12 0 22 -8 35 -24z" />
    <glyph glyph-name="Otilde" unicode="&#xd5;" horiz-adv-x="611" 
d="M305 729c51 0 103 -24 146 -70c86 -93 129 -203 129 -332c0 -206 -118 -343 -275 -343s-275 137 -275 343c0 103 29 198 84 277c57 83 124 125 191 125zM480 325c0 247 -73 379 -175 379s-175 -132 -175 -379c0 -210 60 -316 175 -316s175 106 175 316zM424 914h21
c-12 -59 -42 -89 -85 -89c-11 0 -24 2 -38 6l-57 18c-14 4 -25 6 -29 6c-27 0 -40 -12 -48 -44h-21c10 55 40 90 83 90c12 0 26 -3 44 -8l57 -17c10 -3 19 -5 27 -5c25 0 39 14 46 43z" />
    <glyph glyph-name="Scaron" unicode="&#x160;" horiz-adv-x="551" 
d="M112 2l-93 150c-4 7 -8 12 -8 20c0 7 3 11 10 11c11 0 24 -19 54 -48c80 -76 140 -124 213 -124c87 0 148 69 148 164c0 55 -20 101 -58 134c-43 38 -91 53 -139 71s-99 32 -143 70c-33 28 -50 68 -50 114c0 91 72 164 166 164c49 0 84 -20 104 -20c10 0 14 20 22 20
c5 0 10 -4 15 -13l70 -116c2 -4 3 -7 3 -10c0 -5 -4 -10 -9 -10c-14 0 -25 22 -52 48c-53 50 -95 77 -143 77c-60 0 -106 -45 -106 -106c0 -84 64 -105 172 -144c75 -27 138 -50 184 -107c29 -36 47 -87 47 -141c0 -125 -93 -220 -223 -220c-73 0 -115 24 -132 24
s-22 -24 -33 -24c-7 0 -13 6 -19 16zM144 953h23l109 -113l109 113h23l-109 -170h-46z" />
    <glyph glyph-name="Thorn" unicode="&#xde;" horiz-adv-x="530" 
d="M84 633c0 26 -2 40 -11 45c-18 11 -38 11 -38 22s11 13 31 13h122c20 0 30 -2 30 -13s-21 -11 -38 -22c-9 -6 -10 -22 -10 -50v-16h18c193 0 312 -109 312 -263c0 -121 -91 -199 -239 -199c-38 0 -68 3 -91 12v-82c0 -25 1 -40 10 -45c17 -11 38 -11 38 -22
s-9 -13 -30 -13h-122c-21 0 -31 2 -31 13s21 11 39 22c8 5 10 19 10 45v553zM170 221c0 -32 22 -46 70 -46c104 0 167 67 167 181c0 140 -79 232 -196 232c-34 0 -41 -7 -41 -38v-329z" />
    <glyph glyph-name="Uacute" unicode="&#xda;" horiz-adv-x="551" 
d="M63 232l29 401c0 5 1 9 1 13c0 17 -4 27 -11 32c-18 11 -39 11 -39 22s11 13 31 13h122c20 0 30 -2 30 -13s-23 -12 -36 -22c-8 -6 -14 -22 -15 -45l-27 -425c-1 -21 -2 -39 -2 -54c0 -99 49 -144 159 -144s158 51 158 159c0 3 -1 31 -4 84l-21 380c-1 23 -9 39 -21 45
c-22 12 -43 11 -43 22c0 10 12 13 36 13h67c29 0 44 -2 44 -13c0 -10 -22 -11 -43 -23c-9 -6 -15 -20 -15 -39v-5l20 -389c2 -45 4 -72 4 -83c0 -121 -61 -177 -195 -177c-155 0 -231 63 -231 194c0 14 0 32 2 54zM385 898l-133 -115h-24l118 150c13 16 23 24 35 24
c15 0 27 -11 27 -25c0 -12 -8 -21 -23 -34z" />
    <glyph glyph-name="Ucircumflex" unicode="&#xdb;" horiz-adv-x="551" 
d="M63 232l29 401c0 5 1 9 1 13c0 17 -4 27 -11 32c-18 11 -39 11 -39 22s11 13 31 13h122c20 0 30 -2 30 -13s-23 -12 -36 -22c-8 -6 -14 -22 -15 -45l-27 -425c-1 -21 -2 -39 -2 -54c0 -99 49 -144 159 -144s158 51 158 159c0 3 -1 31 -4 84l-21 380c-1 23 -9 39 -21 45
c-22 12 -43 11 -43 22c0 10 12 13 36 13h67c29 0 44 -2 44 -13c0 -10 -22 -11 -43 -23c-9 -6 -15 -20 -15 -39v-5l20 -389c2 -45 4 -72 4 -83c0 -121 -61 -177 -195 -177c-155 0 -231 63 -231 194c0 14 0 32 2 54zM266 953h46l109 -170h-23l-109 113l-109 -113h-23z" />
    <glyph glyph-name="Udieresis" unicode="&#xdc;" horiz-adv-x="551" 
d="M63 232l29 401c0 5 1 9 1 13c0 17 -4 27 -11 32c-18 11 -39 11 -39 22s11 13 31 13h122c20 0 30 -2 30 -13s-23 -12 -36 -22c-8 -6 -14 -22 -15 -45l-27 -425c-1 -21 -2 -39 -2 -54c0 -99 49 -144 159 -144s158 51 158 159c0 3 -1 31 -4 84l-21 380c-1 23 -9 39 -21 45
c-22 12 -43 11 -43 22c0 10 12 13 36 13h67c29 0 44 -2 44 -13c0 -10 -22 -11 -43 -23c-9 -6 -15 -20 -15 -39v-5l20 -389c2 -45 4 -72 4 -83c0 -121 -61 -177 -195 -177c-155 0 -231 63 -231 194c0 14 0 32 2 54zM204 902c23 0 43 -20 43 -43c0 -25 -18 -43 -43 -43
s-43 18 -43 43c0 23 20 43 43 43zM374 902c23 0 43 -20 43 -43c0 -25 -19 -43 -43 -43c-25 0 -43 18 -43 42s19 44 43 44z" />
    <glyph glyph-name="Ugrave" unicode="&#xd9;" horiz-adv-x="551" 
d="M63 232l29 401c0 5 1 9 1 13c0 17 -4 27 -11 32c-18 11 -39 11 -39 22s11 13 31 13h122c20 0 30 -2 30 -13s-23 -12 -36 -22c-8 -6 -14 -22 -15 -45l-27 -425c-1 -21 -2 -39 -2 -54c0 -99 49 -144 159 -144s158 51 158 159c0 3 -1 31 -4 84l-21 380c-1 23 -9 39 -21 45
c-22 12 -43 11 -43 22c0 10 12 13 36 13h67c29 0 44 -2 44 -13c0 -10 -22 -11 -43 -23c-9 -6 -15 -20 -15 -39v-5l20 -389c2 -45 4 -72 4 -83c0 -121 -61 -177 -195 -177c-155 0 -231 63 -231 194c0 14 0 32 2 54zM232 933l118 -150h-24l-133 115c-15 13 -23 22 -23 34
c0 14 12 25 27 25c12 0 22 -8 35 -24z" />
    <glyph glyph-name="Yacute" unicode="&#xdd;" horiz-adv-x="523" 
d="M309 80c0 -25 2 -40 11 -45c17 -11 38 -11 38 -22s-9 -13 -30 -13h-123c-21 0 -30 2 -30 13s20 11 38 22c8 5 11 19 11 45v140c0 34 -7 58 -19 84l-153 337c-24 54 -61 49 -61 62c0 8 8 10 27 10h151c15 0 21 -1 21 -10c0 -16 -47 -9 -47 -44c0 -7 4 -16 10 -29l141 -330
l136 305c9 20 12 39 12 47c0 13 -9 26 -22 32c-18 9 -33 8 -33 19c0 7 9 10 27 10h113c16 0 23 -2 23 -10c0 -9 -9 -11 -22 -16c-38 -15 -48 -34 -65 -72l-132 -294c-16 -35 -22 -64 -22 -100v-141zM358 898l-133 -115h-24l118 150c13 16 23 24 35 24c15 0 27 -11 27 -25
c0 -12 -8 -21 -23 -34z" />
    <glyph glyph-name="Ydieresis" unicode="&#x178;" horiz-adv-x="523" 
d="M309 80c0 -25 2 -40 11 -45c17 -11 38 -11 38 -22s-9 -13 -30 -13h-123c-21 0 -30 2 -30 13s20 11 38 22c8 5 11 19 11 45v140c0 34 -7 58 -19 84l-153 337c-24 54 -61 49 -61 62c0 8 8 10 27 10h151c15 0 21 -1 21 -10c0 -16 -47 -9 -47 -44c0 -7 4 -16 10 -29l141 -330
l136 305c9 20 12 39 12 47c0 13 -9 26 -22 32c-18 9 -33 8 -33 19c0 7 9 10 27 10h113c16 0 23 -2 23 -10c0 -9 -9 -11 -22 -16c-38 -15 -48 -34 -65 -72l-132 -294c-16 -35 -22 -64 -22 -100v-141zM177 902c23 0 43 -20 43 -43c0 -25 -18 -43 -43 -43s-43 18 -43 43
c0 23 20 43 43 43zM347 902c23 0 43 -20 43 -43c0 -25 -19 -43 -43 -43c-25 0 -43 18 -43 42s19 44 43 44z" />
    <glyph glyph-name="Zcaron" unicode="&#x17d;" horiz-adv-x="472" 
d="M14 36l351 654h-81c-64 0 -110 -23 -159 -74c-24 -25 -31 -50 -46 -50c-4 0 -7 4 -7 10c0 3 3 9 7 18l58 119c5 10 7 16 15 16c6 0 4 -16 46 -16h238c17 0 25 -1 25 -9c0 -3 -1 -8 -4 -14l-355 -667h116c70 0 122 14 170 54c42 35 54 75 72 75c5 0 8 -4 8 -12
c0 -2 -1 -7 -4 -12l-65 -128c-6 -12 -11 -18 -18 -18c-8 0 -16 18 -78 18h-278c-14 0 -21 3 -21 9c0 5 3 14 10 27zM104 953h23l109 -113l109 113h23l-109 -170h-46z" />
    <glyph glyph-name="aacute" unicode="&#xe1;" horiz-adv-x="387" 
d="M264 42c-24 -33 -57 -50 -101 -50c-78 0 -135 57 -135 135c0 75 67 145 138 145c30 0 56 -12 76 -34c-5 109 -22 157 -80 157c-27 0 -50 -11 -66 -33c-12 -16 -12 -37 -22 -37c-5 0 -8 4 -8 11c0 41 49 92 122 92c41 0 73 -15 96 -47c16 -22 20 -59 25 -112l18 -185
c4 -37 11 -52 32 -52c29 0 23 33 35 33c5 0 7 -3 7 -10c0 -39 -23 -63 -63 -63c-38 0 -60 14 -74 50zM189 19c46 0 68 28 68 84c0 98 -27 147 -78 147c-45 0 -76 -40 -76 -108c0 -76 37 -123 86 -123zM290 596l-133 -115h-24l118 150c13 16 23 24 35 24c15 0 27 -11 27 -25
c0 -12 -8 -21 -23 -34z" />
    <glyph glyph-name="acircumflex" unicode="&#xe2;" horiz-adv-x="387" 
d="M264 42c-24 -33 -57 -50 -101 -50c-78 0 -135 57 -135 135c0 75 67 145 138 145c30 0 56 -12 76 -34c-5 109 -22 157 -80 157c-27 0 -50 -11 -66 -33c-12 -16 -12 -37 -22 -37c-5 0 -8 4 -8 11c0 41 49 92 122 92c41 0 73 -15 96 -47c16 -22 20 -59 25 -112l18 -185
c4 -37 11 -52 32 -52c29 0 23 33 35 33c5 0 7 -3 7 -10c0 -39 -23 -63 -63 -63c-38 0 -60 14 -74 50zM189 19c46 0 68 28 68 84c0 98 -27 147 -78 147c-45 0 -76 -40 -76 -108c0 -76 37 -123 86 -123zM171 651h46l109 -170h-23l-109 113l-109 -113h-23z" />
    <glyph glyph-name="adieresis" unicode="&#xe4;" horiz-adv-x="387" 
d="M264 42c-24 -33 -57 -50 -101 -50c-78 0 -135 57 -135 135c0 75 67 145 138 145c30 0 56 -12 76 -34c-5 109 -22 157 -80 157c-27 0 -50 -11 -66 -33c-12 -16 -12 -37 -22 -37c-5 0 -8 4 -8 11c0 41 49 92 122 92c41 0 73 -15 96 -47c16 -22 20 -59 25 -112l18 -185
c4 -37 11 -52 32 -52c29 0 23 33 35 33c5 0 7 -3 7 -10c0 -39 -23 -63 -63 -63c-38 0 -60 14 -74 50zM189 19c46 0 68 28 68 84c0 98 -27 147 -78 147c-45 0 -76 -40 -76 -108c0 -76 37 -123 86 -123zM109 600c23 0 43 -20 43 -43c0 -25 -18 -43 -43 -43s-43 18 -43 43
c0 23 20 43 43 43zM279 600c23 0 43 -20 43 -43c0 -25 -19 -43 -43 -43c-25 0 -43 18 -43 42s19 44 43 44z" />
    <glyph glyph-name="agrave" unicode="&#xe0;" horiz-adv-x="387" 
d="M264 42c-24 -33 -57 -50 -101 -50c-78 0 -135 57 -135 135c0 75 67 145 138 145c30 0 56 -12 76 -34c-5 109 -22 157 -80 157c-27 0 -50 -11 -66 -33c-12 -16 -12 -37 -22 -37c-5 0 -8 4 -8 11c0 41 49 92 122 92c41 0 73 -15 96 -47c16 -22 20 -59 25 -112l18 -185
c4 -37 11 -52 32 -52c29 0 23 33 35 33c5 0 7 -3 7 -10c0 -39 -23 -63 -63 -63c-38 0 -60 14 -74 50zM189 19c46 0 68 28 68 84c0 98 -27 147 -78 147c-45 0 -76 -40 -76 -108c0 -76 37 -123 86 -123zM137 631l118 -150h-24l-133 115c-15 13 -23 22 -23 34c0 14 12 25 27 25
c12 0 22 -8 35 -24z" />
    <glyph glyph-name="aring" unicode="&#xe5;" horiz-adv-x="387" 
d="M264 42c-24 -33 -57 -50 -101 -50c-78 0 -135 57 -135 135c0 75 67 145 138 145c30 0 56 -12 76 -34c-5 109 -22 157 -80 157c-27 0 -50 -11 -66 -33c-12 -16 -12 -37 -22 -37c-5 0 -8 4 -8 11c0 41 49 92 122 92c41 0 73 -15 96 -47c16 -22 20 -59 25 -112l18 -185
c4 -37 11 -52 32 -52c29 0 23 33 35 33c5 0 7 -3 7 -10c0 -39 -23 -63 -63 -63c-38 0 -60 14 -74 50zM189 19c46 0 68 28 68 84c0 98 -27 147 -78 147c-45 0 -76 -40 -76 -108c0 -76 37 -123 86 -123zM192 689c64 0 114 -50 114 -114s-50 -114 -114 -114s-114 50 -114 114
s50 114 114 114zM193 649c-42 0 -75 -33 -75 -74c0 -42 33 -75 75 -75s74 33 74 75c0 41 -33 74 -74 74z" />
    <glyph glyph-name="atilde" unicode="&#xe3;" horiz-adv-x="387" 
d="M264 42c-24 -33 -57 -50 -101 -50c-78 0 -135 57 -135 135c0 75 67 145 138 145c30 0 56 -12 76 -34c-5 109 -22 157 -80 157c-27 0 -50 -11 -66 -33c-12 -16 -12 -37 -22 -37c-5 0 -8 4 -8 11c0 41 49 92 122 92c41 0 73 -15 96 -47c16 -22 20 -59 25 -112l18 -185
c4 -37 11 -52 32 -52c29 0 23 33 35 33c5 0 7 -3 7 -10c0 -39 -23 -63 -63 -63c-38 0 -60 14 -74 50zM189 19c46 0 68 28 68 84c0 98 -27 147 -78 147c-45 0 -76 -40 -76 -108c0 -76 37 -123 86 -123zM312 612h21c-12 -59 -42 -89 -85 -89c-11 0 -24 2 -38 6l-57 18
c-14 4 -25 6 -29 6c-27 0 -40 -12 -48 -44h-21c10 55 40 90 83 90c12 0 26 -3 44 -8l57 -17c10 -3 19 -5 27 -5c25 0 39 14 46 43z" />
    <glyph glyph-name="brokenbar" unicode="&#xa6;" 
d="M219 699h62v-370h-62v370zM219 199h62v-370h-62v370z" />
    <glyph glyph-name="ccedilla" unicode="&#xe7;" horiz-adv-x="351" 
d="M334 372l-40 -88c-4 -9 -7 -14 -13 -14c-5 0 -7 5 -7 14c0 4 1 11 1 19c0 65 -32 105 -74 105c-50 0 -88 -58 -88 -159c0 -142 50 -222 124 -222c41 0 71 22 85 65c5 14 4 22 11 22c6 0 9 -4 9 -11c0 -63 -51 -114 -136 -114c-99 0 -171 77 -171 194c0 61 20 121 57 173
c34 48 74 72 120 72c44 0 88 -19 122 -56zM164 0h27v-59c10 2 19 2 27 2c54 0 86 -31 86 -79c0 -46 -40 -79 -102 -79c-35 0 -80 11 -135 33l13 32c49 -24 88 -33 108 -33c41 0 62 16 62 49c0 28 -21 45 -58 45c-8 0 -18 -1 -28 -3v92z" />
    <glyph glyph-name="copyright" unicode="&#xa9;" horiz-adv-x="822" 
d="M412 675c89 0 177 -36 241 -100c64 -63 101 -153 101 -244c0 -90 -35 -176 -101 -243c-64 -65 -149 -100 -242 -100c-92 0 -176 34 -242 100c-66 65 -101 150 -101 243c0 91 35 177 100 243c64 65 152 101 244 101zM412 636c-80 0 -158 -33 -214 -90
c-57 -58 -88 -134 -88 -215c0 -82 32 -158 89 -215c58 -58 131 -88 212 -88c82 0 155 30 212 88c58 59 89 135 89 215s-32 160 -88 216s-134 89 -212 89zM547 535h17l1 -153h-20c-22 89 -68 134 -137 134c-79 0 -121 -61 -121 -182c0 -123 44 -186 130 -186
c56 0 101 28 138 85l17 -12c-38 -68 -93 -102 -167 -102c-109 0 -197 92 -197 205c0 123 87 214 196 214c61 0 94 -33 112 -33s27 9 31 30z" />
    <glyph glyph-name="degree" unicode="&#xb0;" horiz-adv-x="329" 
d="M165 710c76 0 138 -62 138 -138c0 -75 -61 -138 -139 -138c-77 0 -137 61 -137 138c0 78 62 138 138 138zM165 670c-54 0 -99 -43 -99 -98c0 -56 45 -99 99 -99c56 0 98 45 98 99s-43 98 -98 98z" />
    <glyph glyph-name="divide" unicode="&#xf7;" horiz-adv-x="833" 
d="M417 530c31 0 56 -25 56 -56c0 -30 -24 -56 -56 -56s-56 25 -56 56s26 56 56 56zM124 327h585v-57h-585v57zM417 178c30 0 56 -25 56 -56c0 -30 -24 -56 -56 -56c-31 0 -56 25 -56 56c0 32 26 56 56 56z" />
    <glyph glyph-name="eacute" unicode="&#xe9;" horiz-adv-x="370" 
d="M116 199c12 -112 52 -167 125 -167c44 0 73 20 88 60c5 13 5 23 13 23c5 0 8 -5 8 -14c0 -59 -56 -112 -137 -112c-110 0 -179 76 -179 203c0 137 79 236 159 236c74 0 138 -65 160 -181zM112 219l104 22c38 8 48 14 48 41c0 65 -40 124 -82 124s-72 -50 -72 -142
c0 -12 0 -27 2 -45zM293 596l-133 -115h-24l118 150c13 16 23 24 35 24c15 0 27 -11 27 -25c0 -12 -8 -21 -23 -34z" />
    <glyph glyph-name="ecircumflex" unicode="&#xea;" horiz-adv-x="370" 
d="M116 199c12 -112 52 -167 125 -167c44 0 73 20 88 60c5 13 5 23 13 23c5 0 8 -5 8 -14c0 -59 -56 -112 -137 -112c-110 0 -179 76 -179 203c0 137 79 236 159 236c74 0 138 -65 160 -181zM112 219l104 22c38 8 48 14 48 41c0 65 -40 124 -82 124s-72 -50 -72 -142
c0 -12 0 -27 2 -45zM174 651h46l109 -170h-23l-109 113l-109 -113h-23z" />
    <glyph glyph-name="edieresis" unicode="&#xeb;" horiz-adv-x="370" 
d="M116 199c12 -112 52 -167 125 -167c44 0 73 20 88 60c5 13 5 23 13 23c5 0 8 -5 8 -14c0 -59 -56 -112 -137 -112c-110 0 -179 76 -179 203c0 137 79 236 159 236c74 0 138 -65 160 -181zM112 219l104 22c38 8 48 14 48 41c0 65 -40 124 -82 124s-72 -50 -72 -142
c0 -12 0 -27 2 -45zM112 600c23 0 43 -20 43 -43c0 -25 -18 -43 -43 -43s-43 18 -43 43c0 23 20 43 43 43zM282 600c23 0 43 -20 43 -43c0 -25 -19 -43 -43 -43c-25 0 -43 18 -43 42s19 44 43 44z" />
    <glyph glyph-name="egrave" unicode="&#xe8;" horiz-adv-x="370" 
d="M116 199c12 -112 52 -167 125 -167c44 0 73 20 88 60c5 13 5 23 13 23c5 0 8 -5 8 -14c0 -59 -56 -112 -137 -112c-110 0 -179 76 -179 203c0 137 79 236 159 236c74 0 138 -65 160 -181zM112 219l104 22c38 8 48 14 48 41c0 65 -40 124 -82 124s-72 -50 -72 -142
c0 -12 0 -27 2 -45zM140 631l118 -150h-24l-133 115c-15 13 -23 22 -23 34c0 14 12 25 27 25c12 0 22 -8 35 -24z" />
    <glyph glyph-name="eth" unicode="&#xf0;" horiz-adv-x="424" 
d="M218 9c62 0 96 65 96 191c0 137 -41 210 -100 210s-99 -73 -99 -202c0 -132 34 -199 103 -199zM283 407c-10 43 -24 88 -43 134l-135 -59c-3 -1 -5 -2 -7 -2c-4 0 -6 3 -8 8l-5 12c-1 2 -1 4 -1 6c0 4 2 8 7 10l136 58c-35 85 -63 124 -63 132c0 6 5 11 12 11
c14 0 50 -41 104 -123l100 44c3 1 5 2 7 2c3 0 5 -3 7 -8l6 -12c1 -2 1 -4 1 -6c0 -4 -2 -7 -7 -9l-97 -40c64 -140 97 -256 97 -348c0 -142 -75 -229 -175 -229c-109 0 -188 87 -188 209c0 130 90 233 186 233c25 0 46 -7 66 -23z" />
    <glyph glyph-name="iacute" unicode="&#xed;" horiz-adv-x="222" 
d="M148 84c0 -29 4 -48 10 -54c8 -9 31 -10 31 -21c0 -6 -7 -9 -20 -9h-111c-13 0 -20 3 -20 9c0 11 23 12 31 21c6 6 10 24 10 54v235c0 25 -2 31 -15 34c-14 4 -25 1 -25 11c0 8 12 12 30 22c46 25 68 43 73 43s6 -6 6 -17v-328zM207 596l-133 -115h-24l118 150
c13 16 23 24 35 24c15 0 27 -11 27 -25c0 -12 -8 -21 -23 -34z" />
    <glyph glyph-name="icircumflex" unicode="&#xee;" horiz-adv-x="222" 
d="M148 84c0 -29 4 -48 10 -54c8 -9 31 -10 31 -21c0 -6 -7 -9 -20 -9h-111c-13 0 -20 3 -20 9c0 11 23 12 31 21c6 6 10 24 10 54v235c0 25 -2 31 -15 34c-14 4 -25 1 -25 11c0 8 12 12 30 22c46 25 68 43 73 43s6 -6 6 -17v-328zM88 651h46l109 -170h-23l-109 113
l-109 -113h-23z" />
    <glyph glyph-name="idieresis" unicode="&#xef;" horiz-adv-x="222" 
d="M148 84c0 -29 4 -48 10 -54c8 -9 31 -10 31 -21c0 -6 -7 -9 -20 -9h-111c-13 0 -20 3 -20 9c0 11 23 12 31 21c6 6 10 24 10 54v235c0 25 -2 31 -15 34c-14 4 -25 1 -25 11c0 8 12 12 30 22c46 25 68 43 73 43s6 -6 6 -17v-328zM26 600c23 0 43 -20 43 -43
c0 -25 -18 -43 -43 -43s-43 18 -43 43c0 23 20 43 43 43zM196 600c23 0 43 -20 43 -43c0 -25 -19 -43 -43 -43c-25 0 -43 18 -43 42s19 44 43 44z" />
    <glyph glyph-name="igrave" unicode="&#xec;" horiz-adv-x="222" 
d="M148 84c0 -29 4 -48 10 -54c8 -9 31 -10 31 -21c0 -6 -7 -9 -20 -9h-111c-13 0 -20 3 -20 9c0 11 23 12 31 21c6 6 10 24 10 54v235c0 25 -2 31 -15 34c-14 4 -25 1 -25 11c0 8 12 12 30 22c46 25 68 43 73 43s6 -6 6 -17v-328zM54 631l118 -150h-24l-133 115
c-15 13 -23 22 -23 34c0 14 12 25 27 25c12 0 22 -8 35 -24z" />
    <glyph glyph-name="logicalnot" unicode="&#xac;" horiz-adv-x="833" 
d="M124 419h585v-245h-56v188h-529v57z" />
    <glyph glyph-name="minus" unicode="&#x2212;" horiz-adv-x="833" 
d="M124 327h585v-58h-585v58z" />
    <glyph glyph-name="mu" unicode="&#xb5;" horiz-adv-x="547" 
d="M80 94c-39 -199 -23 -298 -80 -298c-24 0 -39 16 -39 43c0 41 43 152 83 342l53 251h72l-51 -240c-4 -20 -6 -39 -6 -55c0 -54 29 -85 78 -85c63 0 107 44 126 131l54 249h73l-56 -259c-6 -29 -10 -50 -10 -67c0 -32 19 -53 45 -53c22 0 43 12 57 34c23 35 22 75 39 75
c8 0 13 -7 13 -18c0 -12 -5 -40 -20 -73c-24 -53 -61 -80 -112 -80c-43 0 -73 34 -73 93v11c-30 -71 -75 -106 -137 -106c-63 0 -100 36 -109 105z" />
    <glyph glyph-name="multiply" unicode="&#xd7;" horiz-adv-x="833" 
d="M186 571l233 -233l232 233l40 -40l-232 -233l232 -232l-40 -40l-232 232l-233 -232l-39 40l232 232l-232 233z" />
    <glyph glyph-name="ntilde" unicode="&#xf1;" horiz-adv-x="424" 
d="M139 84c0 -29 3 -48 9 -54c8 -9 31 -10 31 -21c0 -6 -7 -9 -20 -9h-110c-13 0 -20 3 -20 9c0 11 23 12 31 21c6 6 9 24 9 54v235c0 25 -1 31 -14 34c-14 4 -26 1 -26 11c0 8 13 12 31 22c46 25 67 43 72 43s7 -6 7 -17v-73c23 58 64 89 107 89c68 0 93 -42 103 -129
l22 -196c4 -39 6 -63 22 -76c9 -7 25 -8 25 -18c0 -6 -7 -9 -21 -9h-110c-14 0 -20 2 -20 9c0 15 37 9 37 47c0 8 -1 20 -3 37l-24 216c-7 58 -18 81 -55 81c-43 0 -83 -49 -83 -143v-163zM330 612h21c-12 -59 -42 -89 -85 -89c-11 0 -24 2 -38 6l-57 18c-14 4 -25 6 -29 6
c-27 0 -40 -12 -48 -44h-21c10 55 40 90 83 90c12 0 26 -3 44 -8l57 -17c10 -3 19 -5 27 -5c25 0 39 14 46 43z" />
    <glyph glyph-name="oacute" unicode="&#xf3;" horiz-adv-x="424" 
d="M194 429c41 0 78 -16 116 -47c56 -45 88 -115 88 -194c0 -118 -74 -199 -175 -199c-105 0 -191 93 -191 224c0 121 80 216 162 216zM322 133c0 73 -20 158 -51 217c-19 37 -51 59 -81 59c-51 0 -81 -49 -81 -141c0 -157 58 -257 127 -257c55 0 86 43 86 122zM308 596
l-133 -115h-24l118 150c13 16 23 24 35 24c15 0 27 -11 27 -25c0 -12 -8 -21 -23 -34z" />
    <glyph glyph-name="ocircumflex" unicode="&#xf4;" horiz-adv-x="424" 
d="M194 429c41 0 78 -16 116 -47c56 -45 88 -115 88 -194c0 -118 -74 -199 -175 -199c-105 0 -191 93 -191 224c0 121 80 216 162 216zM322 133c0 73 -20 158 -51 217c-19 37 -51 59 -81 59c-51 0 -81 -49 -81 -141c0 -157 58 -257 127 -257c55 0 86 43 86 122zM189 651h46
l109 -170h-23l-109 113l-109 -113h-23z" />
    <glyph glyph-name="odieresis" unicode="&#xf6;" horiz-adv-x="424" 
d="M194 429c41 0 78 -16 116 -47c56 -45 88 -115 88 -194c0 -118 -74 -199 -175 -199c-105 0 -191 93 -191 224c0 121 80 216 162 216zM322 133c0 73 -20 158 -51 217c-19 37 -51 59 -81 59c-51 0 -81 -49 -81 -141c0 -157 58 -257 127 -257c55 0 86 43 86 122zM127 600
c23 0 43 -20 43 -43c0 -25 -18 -43 -43 -43s-43 18 -43 43c0 23 20 43 43 43zM297 600c23 0 43 -20 43 -43c0 -25 -19 -43 -43 -43c-25 0 -43 18 -43 42s19 44 43 44z" />
    <glyph glyph-name="ograve" unicode="&#xf2;" horiz-adv-x="424" 
d="M194 429c41 0 78 -16 116 -47c56 -45 88 -115 88 -194c0 -118 -74 -199 -175 -199c-105 0 -191 93 -191 224c0 121 80 216 162 216zM322 133c0 73 -20 158 -51 217c-19 37 -51 59 -81 59c-51 0 -81 -49 -81 -141c0 -157 58 -257 127 -257c55 0 86 43 86 122zM155 631
l118 -150h-24l-133 115c-15 13 -23 22 -23 34c0 14 12 25 27 25c12 0 22 -8 35 -24z" />
    <glyph glyph-name="onehalf" unicode="&#xbd;" horiz-adv-x="750" 
d="M111 313c-14 0 -20 1 -20 7s13 6 25 13c5 2 6 10 6 25v271c0 18 -1 23 -20 23l-24 1c-5 0 -6 1 -6 4c0 5 9 8 26 17c41 20 59 37 65 37c4 0 6 -3 6 -9v-344c0 -14 0 -23 6 -25c11 -7 24 -7 24 -13s-6 -7 -19 -7h-69zM125 -9l449 729h51l-449 -729h-51zM474 0
c5 51 37 91 90 138c30 26 64 49 87 83c15 23 22 48 22 76c0 58 -32 92 -85 92c-45 0 -77 -26 -77 -66c0 -25 16 -40 39 -40c13 0 22 5 32 16c7 -6 8 -13 8 -22c0 -20 -19 -36 -47 -36c-37 0 -65 28 -65 68c0 54 48 94 118 94c77 0 131 -50 131 -116c0 -23 -6 -45 -20 -67
c-17 -29 -50 -49 -89 -73c-74 -45 -109 -80 -109 -99c0 -5 4 -8 12 -8h125c27 0 44 4 54 14c12 12 14 23 21 23c4 0 6 -3 6 -7c0 -1 0 -4 -2 -8l-25 -62h-226z" />
    <glyph glyph-name="onequarter" unicode="&#xbc;" horiz-adv-x="750" 
d="M111 313c-14 0 -20 1 -20 7s13 6 25 13c5 2 6 10 6 25v271c0 18 -1 23 -20 23l-24 1c-5 0 -6 1 -6 4c0 5 9 8 26 17c41 20 59 37 65 37c4 0 6 -3 6 -9v-344c0 -14 0 -23 6 -25c11 -7 24 -7 24 -13s-6 -7 -19 -7h-69zM125 -9l449 729h51l-449 -729h-51zM487 147h164v224z
M650 398h47v-251h45v-29h-45v-73c0 -14 0 -21 7 -25c11 -7 24 -7 24 -13s-6 -7 -19 -7h-70c-13 0 -19 1 -19 7s13 6 24 13c5 2 7 10 7 25v73h-178v33z" />
    <glyph glyph-name="onesuperior" unicode="&#xb9;" horiz-adv-x="306" 
d="M116 284c-13 0 -20 1 -20 8c0 6 14 6 26 13c5 3 6 11 6 27v290c0 20 -1 25 -21 26h-24c-6 0 -8 1 -8 5c0 5 10 8 28 17c43 23 62 41 68 41c5 0 6 -4 6 -11v-368c0 -15 1 -24 7 -27c11 -7 25 -7 25 -13c0 -7 -6 -8 -20 -8h-73z" />
    <glyph glyph-name="otilde" unicode="&#xf5;" horiz-adv-x="424" 
d="M194 429c41 0 78 -16 116 -47c56 -45 88 -115 88 -194c0 -118 -74 -199 -175 -199c-105 0 -191 93 -191 224c0 121 80 216 162 216zM322 133c0 73 -20 158 -51 217c-19 37 -51 59 -81 59c-51 0 -81 -49 -81 -141c0 -157 58 -257 127 -257c55 0 86 43 86 122zM330 612h21
c-12 -59 -42 -89 -85 -89c-11 0 -24 2 -38 6l-57 18c-14 4 -25 6 -29 6c-27 0 -40 -12 -48 -44h-21c10 55 40 90 83 90c12 0 26 -3 44 -8l57 -17c10 -3 19 -5 27 -5c25 0 39 14 46 43z" />
    <glyph glyph-name="plusminus" unicode="&#xb1;" horiz-adv-x="833" 
d="M388 576h58v-168h263v-57h-263v-168h-58v168h-264v57h264v168zM124 77h585v-57h-585v57z" />
    <glyph glyph-name="registered" unicode="&#xae;" horiz-adv-x="822" 
d="M412 675c90 0 179 -37 243 -101c63 -63 99 -152 99 -244c0 -88 -37 -177 -104 -244c-64 -64 -147 -98 -242 -98c-89 0 -173 35 -239 100s-101 150 -101 243c0 91 35 177 100 243c64 65 152 101 244 101zM412 636c-80 0 -157 -33 -214 -90c-57 -58 -88 -134 -88 -215
c0 -83 31 -157 89 -215s131 -88 212 -88c82 0 155 30 212 88c58 59 89 135 89 215s-32 161 -88 216c-56 56 -134 89 -212 89zM229 533h192c99 0 155 -40 155 -98c0 -50 -44 -80 -140 -97c61 -19 90 -48 104 -103c10 -39 3 -74 34 -74c21 0 33 22 33 65h21v-6
c0 -57 -27 -87 -78 -87c-31 0 -52 12 -62 32c-16 34 -7 74 -15 102c-13 45 -46 65 -101 65h-16v-121c0 -36 15 -47 61 -49v-20h-188v20c46 1 62 13 62 49v252c0 37 -15 47 -62 49v21zM356 351c16 -1 27 -1 32 -1c75 0 115 32 115 85c0 45 -34 79 -96 79
c-33 0 -51 -12 -51 -35v-128z" />
    <glyph glyph-name="scaron" unicode="&#x161;" horiz-adv-x="345" 
d="M83 -1l-53 108c-3 5 -4 10 -4 13c0 7 4 11 9 11c11 0 16 -16 31 -37c41 -55 81 -83 119 -83c41 0 70 33 70 82c0 43 -24 78 -67 98c-86 39 -148 57 -148 132c0 60 42 104 101 104c33 0 55 -12 64 -12c11 0 18 12 24 12c7 0 8 -4 12 -12l41 -84c4 -7 5 -11 5 -12
c0 -4 -5 -8 -10 -8c-7 0 -14 12 -30 31c-35 40 -62 66 -101 66c-34 0 -57 -22 -57 -54c0 -29 19 -52 54 -65c49 -18 88 -30 111 -47c41 -31 61 -71 61 -121c0 -73 -54 -132 -128 -132c-34 0 -56 13 -67 13c-13 0 -20 -15 -26 -15c-5 0 -7 4 -11 12zM41 651h23l109 -113
l109 113h23l-109 -170h-46z" />
    <glyph glyph-name="thorn" unicode="&#xfe;" horiz-adv-x="412" 
d="M127 -87c0 -29 4 -48 10 -54c8 -9 31 -10 31 -21c0 -6 -7 -9 -20 -9h-111c-13 0 -20 3 -20 9c0 11 23 12 31 21c5 6 10 24 10 54v695c0 25 -2 31 -15 34c-14 4 -25 1 -25 11c0 8 12 12 30 22c46 25 68 43 73 43s6 -6 6 -17v-355c21 52 59 81 98 81c76 0 154 -96 154 -240
c0 -119 -69 -198 -150 -198c-45 0 -80 22 -102 62v-138zM127 244v-116c0 -64 28 -100 70 -100c60 0 110 79 110 212c0 102 -38 160 -90 160c-51 0 -90 -57 -90 -156z" />
    <glyph glyph-name="threequarters" unicode="&#xbe;" horiz-adv-x="750" 
d="M126 557c9 1 18 2 26 2c75 0 120 -44 120 -120c0 -82 -56 -132 -145 -132c-70 0 -113 33 -113 84c0 37 24 63 58 63c24 0 41 -13 41 -30c0 -9 -4 -16 -12 -24c-4 9 -15 14 -28 14c-18 0 -31 -13 -31 -33c0 -35 30 -61 78 -61c61 0 97 37 97 103c0 80 -27 121 -78 121
c-23 0 -36 -10 -40 -10s-6 2 -6 5c0 4 3 7 8 12l121 120h-102c-66 0 -78 -23 -85 -23c-3 0 -5 2 -5 5c0 2 3 6 8 12l38 46c5 6 10 10 15 10c7 0 10 -5 15 -8c3 -2 7 -2 12 -2h136c13 0 19 0 19 -7c0 -3 -4 -7 -11 -14zM125 -9l449 729h51l-449 -729h-51zM487 147h164v224z
M650 398h47v-251h45v-29h-45v-73c0 -14 0 -21 7 -25c11 -7 24 -7 24 -13s-6 -7 -19 -7h-70c-13 0 -19 1 -19 7s13 6 24 13c5 2 7 10 7 25v73h-178v33z" />
    <glyph glyph-name="threesuperior" unicode="&#xb3;" horiz-adv-x="306" 
d="M132 545c10 2 19 3 28 3c78 0 124 -47 124 -129c0 -88 -58 -141 -151 -141c-74 0 -118 35 -118 90c0 40 25 67 61 67c25 0 42 -14 42 -32c0 -9 -4 -18 -12 -26c-4 10 -16 15 -29 15c-19 0 -33 -14 -33 -35c0 -38 32 -66 81 -66c65 0 103 40 103 111c0 85 -29 129 -82 129
c-25 0 -38 -10 -42 -10s-6 2 -6 5c0 4 3 8 8 13l126 128h-106c-70 0 -82 -24 -89 -24c-3 0 -6 2 -6 5s3 7 9 13l40 49c5 7 10 11 15 11c7 0 11 -6 17 -9c2 -1 7 -1 12 -1h142c14 0 20 -1 20 -8c0 -4 -4 -8 -11 -15z" />
    <glyph glyph-name="trademark" unicode="&#x2122;" horiz-adv-x="822" 
d="M125 702h215l5 -87h-12c-5 51 -25 74 -67 74h-10v-208c0 -16 9 -25 22 -26l15 -1v-13h-121v13l15 1c13 1 22 10 22 26v208h-10c-42 0 -62 -23 -67 -74h-13zM385 702h89l69 -195l72 195h85v-12l-14 -1c-14 -1 -23 -10 -23 -26v-182c0 -16 9 -25 23 -26l14 -1v-13h-115v13
l15 1c13 1 22 10 22 26v193l-87 -234h-7l-85 234v-193c0 -16 10 -25 23 -26l15 -1v-13h-96v13l16 1c13 1 22 10 22 26v181c0 16 -10 25 -23 26l-15 1v13z" />
    <glyph glyph-name="twosuperior" unicode="&#xb2;" horiz-adv-x="306" 
d="M16 284c4 55 38 98 94 148c32 28 67 52 91 89c15 25 23 52 23 82c0 61 -33 98 -89 98c-47 0 -81 -28 -81 -71c0 -26 17 -43 41 -43c14 0 24 5 34 17c7 -6 8 -13 8 -23c0 -22 -20 -38 -49 -38c-38 0 -68 29 -68 72c0 58 50 101 124 101c80 0 137 -53 137 -125
c0 -24 -6 -48 -21 -72c-18 -30 -52 -52 -94 -78c-77 -48 -113 -85 -113 -105c0 -6 4 -9 12 -9h131c28 0 46 4 57 15c12 12 14 24 22 24c4 0 6 -2 6 -7c0 -1 0 -4 -2 -9l-26 -66h-237z" />
    <glyph glyph-name="uacute" unicode="&#xfa;" horiz-adv-x="419" 
d="M276 319c0 25 -2 31 -15 34c-14 4 -25 1 -25 11c0 8 12 12 30 22c46 25 68 43 73 43s6 -6 6 -17v-352c0 -47 42 -36 42 -52c0 -6 -7 -8 -21 -8h-74c-12 0 -16 3 -16 16v57c-20 -51 -65 -81 -115 -81c-69 0 -95 42 -95 129v198c0 25 -1 31 -14 34c-14 4 -26 1 -26 11
c0 8 12 12 30 22c46 25 68 43 73 43s7 -6 7 -17v-283c0 -66 10 -99 55 -99c53 0 85 47 85 143v146zM306 596l-133 -115h-24l118 150c13 16 23 24 35 24c15 0 27 -11 27 -25c0 -12 -8 -21 -23 -34z" />
    <glyph glyph-name="ucircumflex" unicode="&#xfb;" horiz-adv-x="419" 
d="M276 319c0 25 -2 31 -15 34c-14 4 -25 1 -25 11c0 8 12 12 30 22c46 25 68 43 73 43s6 -6 6 -17v-352c0 -47 42 -36 42 -52c0 -6 -7 -8 -21 -8h-74c-12 0 -16 3 -16 16v57c-20 -51 -65 -81 -115 -81c-69 0 -95 42 -95 129v198c0 25 -1 31 -14 34c-14 4 -26 1 -26 11
c0 8 12 12 30 22c46 25 68 43 73 43s7 -6 7 -17v-283c0 -66 10 -99 55 -99c53 0 85 47 85 143v146zM187 651h46l109 -170h-23l-109 113l-109 -113h-23z" />
    <glyph glyph-name="udieresis" unicode="&#xfc;" horiz-adv-x="419" 
d="M276 319c0 25 -2 31 -15 34c-14 4 -25 1 -25 11c0 8 12 12 30 22c46 25 68 43 73 43s6 -6 6 -17v-352c0 -47 42 -36 42 -52c0 -6 -7 -8 -21 -8h-74c-12 0 -16 3 -16 16v57c-20 -51 -65 -81 -115 -81c-69 0 -95 42 -95 129v198c0 25 -1 31 -14 34c-14 4 -26 1 -26 11
c0 8 12 12 30 22c46 25 68 43 73 43s7 -6 7 -17v-283c0 -66 10 -99 55 -99c53 0 85 47 85 143v146zM125 600c23 0 43 -20 43 -43c0 -25 -18 -43 -43 -43s-43 18 -43 43c0 23 20 43 43 43zM295 600c23 0 43 -20 43 -43c0 -25 -19 -43 -43 -43c-25 0 -43 18 -43 42
s19 44 43 44z" />
    <glyph glyph-name="ugrave" unicode="&#xf9;" horiz-adv-x="419" 
d="M276 319c0 25 -2 31 -15 34c-14 4 -25 1 -25 11c0 8 12 12 30 22c46 25 68 43 73 43s6 -6 6 -17v-352c0 -47 42 -36 42 -52c0 -6 -7 -8 -21 -8h-74c-12 0 -16 3 -16 16v57c-20 -51 -65 -81 -115 -81c-69 0 -95 42 -95 129v198c0 25 -1 31 -14 34c-14 4 -26 1 -26 11
c0 8 12 12 30 22c46 25 68 43 73 43s7 -6 7 -17v-283c0 -66 10 -99 55 -99c53 0 85 47 85 143v146zM153 631l118 -150h-24l-133 115c-15 13 -23 22 -23 34c0 14 12 25 27 25c12 0 22 -8 35 -24z" />
    <glyph glyph-name="yacute" unicode="&#xfd;" horiz-adv-x="351" 
d="M39 356c-16 46 -52 40 -52 52c0 7 8 9 24 9h123c13 0 18 0 18 -8c0 -14 -40 -9 -40 -37c0 -6 1 -17 4 -26l86 -250l82 231c6 18 8 32 8 38c0 30 -44 31 -44 44c0 6 7 8 21 8h87c12 0 18 -3 18 -9c0 -14 -39 -6 -64 -74l-127 -355c-36 -100 -65 -151 -129 -151
c-30 0 -43 9 -45 30l-8 77c0 3 -1 6 -1 9c0 8 3 13 8 13c9 0 10 -8 15 -19c16 -35 29 -52 58 -52c38 0 82 60 82 107c0 13 -2 22 -6 32zM272 596l-133 -115h-24l118 150c13 16 23 24 35 24c15 0 27 -11 27 -25c0 -12 -8 -21 -23 -34z" />
    <glyph glyph-name="ydieresis" unicode="&#xff;" horiz-adv-x="351" 
d="M39 356c-16 46 -52 40 -52 52c0 7 8 9 24 9h123c13 0 18 0 18 -8c0 -14 -40 -9 -40 -37c0 -6 1 -17 4 -26l86 -250l82 231c6 18 8 32 8 38c0 30 -44 31 -44 44c0 6 7 8 21 8h87c12 0 18 -3 18 -9c0 -14 -39 -6 -64 -74l-127 -355c-36 -100 -65 -151 -129 -151
c-30 0 -43 9 -45 30l-8 77c0 3 -1 6 -1 9c0 8 3 13 8 13c9 0 10 -8 15 -19c16 -35 29 -52 58 -52c38 0 82 60 82 107c0 13 -2 22 -6 32zM91 600c23 0 43 -20 43 -43c0 -25 -18 -43 -43 -43s-43 18 -43 43c0 23 20 43 43 43zM261 600c23 0 43 -20 43 -43
c0 -25 -19 -43 -43 -43c-25 0 -43 18 -43 42s19 44 43 44z" />
    <glyph glyph-name="zcaron" unicode="&#x17e;" horiz-adv-x="352" 
d="M10 22l257 376h-17c-68 0 -116 -12 -148 -44c-36 -35 -46 -57 -55 -57c-5 0 -8 4 -8 9c0 3 2 6 6 13l53 98c4 7 5 11 14 11c4 0 9 -11 38 -11h184c11 0 16 -2 16 -6c0 -2 -1 -7 -6 -14l-255 -377c12 0 24 -1 36 -1c66 0 113 10 158 48c38 33 48 61 60 61c4 0 8 -4 8 -8
c0 -2 -2 -7 -6 -14l-62 -106c-3 -6 -5 -10 -11 -10c-3 0 -10 10 -66 10h-187c-10 0 -15 3 -15 8c0 3 1 7 6 14zM44 651h23l109 -113l109 113h23l-109 -170h-46z" />
    </font>
</defs>
</svg>
